<svg xmlns="http://www.w3.org/2000/svg" xmlns:xlink="http://www.w3.org/1999/xlink" width="1600" zoomAndPan="magnify" viewBox="0 0 1200 299.999988" height="400" preserveAspectRatio="xMidYMid meet" version="1.0"><defs><g/><clipPath id="977e923357"><rect x="0" width="601" y="0" height="172"/></clipPath></defs><g transform="matrix(1, 0, 0, 1, 276, 17)"><g clip-path="url(#977e923357)"><path fill="#f9de45" d="M 14.046875 39.519531 L 582.640625 10.511719 C 588.78125 10.199219 594.011719 14.925781 594.324219 21.066406 L 599.863281 129.636719 C 600.175781 135.777344 595.453125 141.007812 589.3125 141.320312 L 20.722656 170.328125 C 14.582031 170.640625 9.347656 165.917969 9.035156 159.777344 L 3.496094 51.207031 C 3.183594 45.066406 7.90625 39.832031 14.046875 39.519531 Z M 14.046875 39.519531 " fill-opacity="1" fill-rule="nonzero"/><g fill="#453630" fill-opacity="1"><g transform="translate(6.864586, 141.890927)"><g/></g></g><g fill="#453630" fill-opacity="1"><g transform="translate(21.929828, 141.122385)"><g/></g></g><g fill="#453630" fill-opacity="1"><g transform="translate(37.001801, 140.353501)"><g><path d="M 23.515625 -89.3125 L 42.34375 -90.28125 L 42.046875 -2.140625 L 28.5 -1.453125 L 28.859375 -19.09375 L 18.4375 -18.5625 L 14.6875 -0.75 L 0.625 -0.03125 Z M 29.3125 -32.328125 L 29.96875 -61.328125 C 30.070312 -64.179688 30.21875 -66.722656 30.40625 -68.953125 C 30.59375 -71.191406 30.800781 -73.285156 31.03125 -75.234375 L 30.53125 -75.203125 C 30.207031 -73.253906 29.804688 -71.15625 29.328125 -68.90625 C 28.859375 -66.65625 28.316406 -64.085938 27.703125 -61.203125 L 21.40625 -31.921875 Z M 29.3125 -32.328125 "/></g></g></g><g fill="#453630" fill-opacity="1"><g transform="translate(77.176026, 138.304045)"><g><path d="M 23.421875 0.0625 C 18.316406 0.320312 14.304688 -0.914062 11.390625 -3.65625 C 8.484375 -6.40625 6.90625 -10.25 6.65625 -15.1875 C 6.5625 -16.863281 6.664062 -18.882812 6.96875 -21.25 L 13.125 -70.90625 C 13.539062 -74.289062 14.3125 -77.226562 15.4375 -79.71875 C 16.570312 -82.207031 17.9375 -84.269531 19.53125 -85.90625 C 21.132812 -87.539062 22.941406 -88.765625 24.953125 -89.578125 C 26.960938 -90.398438 29.054688 -90.867188 31.234375 -90.984375 C 36.585938 -91.253906 40.703125 -89.925781 43.578125 -87 C 46.460938 -84.082031 48.023438 -80.285156 48.265625 -75.609375 C 48.347656 -74.015625 48.238281 -72.035156 47.9375 -69.671875 L 46.734375 -60.90625 L 32.921875 -60.203125 L 34.390625 -71.234375 C 34.523438 -71.835938 34.578125 -72.390625 34.546875 -72.890625 C 34.523438 -73.390625 34.503906 -73.847656 34.484375 -74.265625 C 34.398438 -75.859375 34.046875 -76.953125 33.421875 -77.546875 C 32.804688 -78.148438 32.125 -78.429688 31.375 -78.390625 C 30.195312 -78.328125 29.207031 -77.851562 28.40625 -76.96875 C 27.613281 -76.09375 27.078125 -74.304688 26.796875 -71.609375 L 20.421875 -19.296875 C 20.234375 -18.023438 20.15625 -17.015625 20.1875 -16.265625 C 20.257812 -14.921875 20.582031 -13.945312 21.15625 -13.34375 C 21.726562 -12.75 22.4375 -12.472656 23.28125 -12.515625 C 24.195312 -12.554688 25.117188 -12.976562 26.046875 -13.78125 C 26.972656 -14.59375 27.617188 -16.4375 27.984375 -19.3125 L 29.65625 -32.984375 L 43.484375 -33.6875 L 41.765625 -20.375 C 40.984375 -14.289062 39.066406 -9.429688 36.015625 -5.796875 C 32.972656 -2.160156 28.773438 -0.207031 23.421875 0.0625 Z M 23.421875 0.0625 "/></g></g></g><g fill="#453630" fill-opacity="1"><g transform="translate(117.97798, 136.222566)"><g><path d="M 15.96875 -88.9375 L 29.796875 -89.640625 L 25.15625 -52.28125 L 33.9375 -52.71875 L 38.578125 -90.09375 L 52.390625 -90.796875 L 41.4375 -2.109375 L 27.625 -1.40625 L 32.234375 -39.40625 L 23.4375 -38.96875 L 18.828125 -0.953125 L 5.03125 -0.25 Z M 15.96875 -88.9375 "/></g></g></g><g fill="#453630" fill-opacity="1"><g transform="translate(161.918548, 133.980973)"><g><path d="M 23.515625 -89.3125 L 42.34375 -90.28125 L 42.046875 -2.140625 L 28.5 -1.453125 L 28.859375 -19.09375 L 18.4375 -18.5625 L 14.6875 -0.75 L 0.625 -0.03125 Z M 29.3125 -32.328125 L 29.96875 -61.328125 C 30.070312 -64.179688 30.21875 -66.722656 30.40625 -68.953125 C 30.59375 -71.191406 30.800781 -73.285156 31.03125 -75.234375 L 30.53125 -75.203125 C 30.207031 -73.253906 29.804688 -71.15625 29.328125 -68.90625 C 28.859375 -66.65625 28.316406 -64.085938 27.703125 -61.203125 L 21.40625 -31.921875 Z M 29.3125 -32.328125 "/></g></g></g><g fill="#453630" fill-opacity="1"><g transform="translate(202.092773, 131.931517)"><g><path d="M 19.921875 -75.90625 L 9.875 -75.40625 L 11.59375 -88.703125 L 45.484375 -90.4375 L 43.765625 -77.125 L 33.734375 -76.625 L 24.484375 -1.25 L 10.671875 -0.546875 Z M 19.921875 -75.90625 "/></g></g></g><g fill="#453630" fill-opacity="1"><g transform="translate(234.7343, 130.266336)"><g><path d="M 21.65625 0.15625 C 16.632812 0.40625 12.628906 -0.835938 9.640625 -3.578125 C 6.648438 -6.316406 5.023438 -10.195312 4.765625 -15.21875 C 4.671875 -17.15625 4.734375 -19.09375 4.953125 -21.03125 L 5.96875 -28.625 L 19.78125 -29.328125 L 18.53125 -19.203125 C 18.382812 -18.609375 18.320312 -18.0625 18.34375 -17.5625 C 18.375 -17.0625 18.398438 -16.601562 18.421875 -16.1875 C 18.503906 -14.59375 18.9375 -13.5625 19.71875 -13.09375 C 20.5 -12.625 21.265625 -12.410156 22.015625 -12.453125 C 22.523438 -12.472656 23.0625 -12.664062 23.625 -13.03125 C 24.195312 -13.40625 24.710938 -14.039062 25.171875 -14.9375 C 25.628906 -15.84375 25.984375 -17.097656 26.234375 -18.703125 C 26.492188 -20.304688 26.5625 -22.328125 26.4375 -24.765625 C 26.382812 -25.765625 26.226562 -26.738281 25.96875 -27.6875 C 25.707031 -28.644531 25.269531 -29.738281 24.65625 -30.96875 C 24.050781 -32.195312 23.265625 -33.625 22.296875 -35.25 C 21.335938 -36.875 20.171875 -38.875 18.796875 -41.25 C 17.410156 -43.519531 16.210938 -45.550781 15.203125 -47.34375 C 14.191406 -49.144531 13.351562 -50.800781 12.6875 -52.3125 C 12.019531 -53.832031 11.523438 -55.273438 11.203125 -56.640625 C 10.890625 -58.015625 10.691406 -59.457031 10.609375 -60.96875 C 10.097656 -71.019531 11.546875 -78.4375 14.953125 -83.21875 C 18.359375 -88.007812 23.15625 -90.566406 29.34375 -90.890625 C 34.375 -91.140625 38.382812 -89.890625 41.375 -87.140625 C 44.363281 -84.390625 45.988281 -80.507812 46.25 -75.5 C 46.34375 -73.570312 46.273438 -71.632812 46.046875 -69.6875 L 45.234375 -63.359375 L 31.421875 -62.65625 L 32.484375 -71.53125 C 32.617188 -72.113281 32.671875 -72.65625 32.640625 -73.15625 C 32.617188 -73.65625 32.597656 -74.117188 32.578125 -74.546875 C 32.492188 -76.140625 32.0625 -77.164062 31.28125 -77.625 C 30.5 -78.09375 29.734375 -78.304688 28.984375 -78.265625 C 28.484375 -78.242188 27.945312 -78.050781 27.375 -77.6875 C 26.800781 -77.320312 26.289062 -76.6875 25.84375 -75.78125 C 25.394531 -74.875 25.039062 -73.613281 24.78125 -72 C 24.519531 -70.394531 24.453125 -68.382812 24.578125 -65.96875 C 24.628906 -64.957031 24.804688 -63.972656 25.109375 -63.015625 C 25.410156 -62.066406 25.863281 -60.976562 26.46875 -59.75 C 27.070312 -58.53125 27.851562 -57.101562 28.8125 -55.46875 C 29.78125 -53.84375 30.957031 -51.847656 32.34375 -49.484375 C 33.71875 -47.117188 34.910156 -45.0625 35.921875 -43.3125 C 36.941406 -41.5625 37.765625 -39.921875 38.390625 -38.390625 C 39.015625 -36.867188 39.484375 -35.421875 39.796875 -34.046875 C 40.109375 -32.679688 40.304688 -31.25 40.390625 -29.75 C 40.898438 -19.707031 39.429688 -12.289062 35.984375 -7.5 C 32.535156 -2.707031 27.757812 -0.15625 21.65625 0.15625 Z M 21.65625 0.15625 "/></g></g></g><g fill="#453630" fill-opacity="1"><g transform="translate(272.397625, 128.344971)"><g/></g></g><g fill="#453630" fill-opacity="1"><g transform="translate(287.462866, 127.57643)"><g><path d="M 21.40625 0.15625 C 16.96875 0.382812 13.460938 -0.878906 10.890625 -3.640625 C 8.316406 -6.398438 6.898438 -10.289062 6.640625 -15.3125 C 6.597656 -16.238281 6.609375 -17.242188 6.671875 -18.328125 C 6.742188 -19.421875 6.832031 -20.5625 6.9375 -21.75 L 13.03125 -70.265625 C 13.800781 -76.429688 15.707031 -81.359375 18.75 -85.046875 C 21.800781 -88.734375 26.171875 -90.722656 31.859375 -91.015625 C 36.878906 -91.265625 40.988281 -90.082031 44.1875 -87.46875 C 47.382812 -84.863281 49.125 -80.800781 49.40625 -75.28125 C 49.457031 -74.351562 49.445312 -73.363281 49.375 -72.3125 C 49.300781 -71.257812 49.210938 -70.140625 49.109375 -68.953125 L 48.1875 -62.25 L 34.375 -61.546875 L 35.40625 -70.78125 C 35.550781 -71.382812 35.609375 -71.957031 35.578125 -72.5 C 35.546875 -73.039062 35.519531 -73.519531 35.5 -73.9375 C 35.414062 -75.613281 34.976562 -76.789062 34.1875 -77.46875 C 33.40625 -78.144531 32.507812 -78.457031 31.5 -78.40625 C 30.40625 -78.34375 29.425781 -77.742188 28.5625 -76.609375 C 27.695312 -75.472656 27.117188 -73.632812 26.828125 -71.09375 L 20.5 -20.171875 C 20.3125 -18.910156 20.238281 -17.90625 20.28125 -17.15625 C 20.4375 -13.96875 21.8125 -12.441406 24.40625 -12.578125 C 25.414062 -12.617188 26.398438 -13.144531 27.359375 -14.15625 C 28.316406 -15.175781 28.96875 -17.082031 29.3125 -19.875 L 31.53125 -38.234375 L 26.765625 -37.984375 L 28.25 -50.53125 L 46.84375 -51.484375 L 40.71875 -1.453125 L 33.796875 -1.09375 L 32.640625 -6.703125 C 31.941406 -5.492188 31.070312 -4.398438 30.03125 -3.421875 C 29.164062 -2.535156 28.015625 -1.742188 26.578125 -1.046875 C 25.140625 -0.347656 23.414062 0.0507812 21.40625 0.15625 Z M 21.40625 0.15625 "/></g></g></g><g fill="#453630" fill-opacity="1"><g transform="translate(329.520263, 125.430906)"><g><path d="M 15.96875 -88.9375 L 30.671875 -89.6875 C 35.941406 -89.957031 40.257812 -88.769531 43.625 -86.125 C 47 -83.476562 48.828125 -79.351562 49.109375 -73.75 C 49.160156 -72.738281 49.148438 -71.664062 49.078125 -70.53125 C 49.015625 -69.394531 48.929688 -68.242188 48.828125 -67.078125 L 47.796875 -57.8125 C 47.171875 -53.507812 46.148438 -49.9375 44.734375 -47.09375 C 43.328125 -44.257812 41.578125 -42.03125 39.484375 -40.40625 L 42.6875 -2.171875 L 28.5 -1.453125 C 28.269531 -4.222656 28.019531 -7.46875 27.75 -11.1875 C 27.476562 -14.90625 27.234375 -18.492188 27.015625 -21.953125 C 26.796875 -25.421875 26.59375 -28.515625 26.40625 -31.234375 C 26.226562 -33.953125 26.117188 -35.734375 26.078125 -36.578125 L 23.1875 -36.4375 L 18.828125 -0.953125 L 5.03125 -0.25 Z M 27.3125 -49.21875 C 28.988281 -49.300781 30.40625 -49.960938 31.5625 -51.203125 C 32.71875 -52.441406 33.503906 -54.664062 33.921875 -57.875 L 35.171875 -68.125 C 35.296875 -68.894531 35.347656 -69.488281 35.328125 -69.90625 C 35.304688 -70.320312 35.285156 -70.78125 35.265625 -71.28125 C 35.160156 -73.289062 34.660156 -74.773438 33.765625 -75.734375 C 32.878906 -76.703125 31.8125 -77.15625 30.5625 -77.09375 L 28.171875 -76.984375 L 24.8125 -49.09375 Z M 27.3125 -49.21875 "/></g></g></g><g fill="#453630" fill-opacity="1"><g transform="translate(371.57766, 123.285381)"><g><path d="M 24.171875 0.015625 C 19.148438 0.273438 15.039062 -0.894531 11.84375 -3.5 C 8.644531 -6.101562 6.90625 -10.171875 6.625 -15.703125 C 6.582031 -16.617188 6.59375 -17.597656 6.65625 -18.640625 C 6.726562 -19.691406 6.820312 -20.8125 6.9375 -22 L 13.03125 -70.265625 C 13.851562 -77.109375 15.941406 -82.210938 19.296875 -85.578125 C 22.660156 -88.941406 26.847656 -90.753906 31.859375 -91.015625 C 36.878906 -91.265625 40.988281 -90.082031 44.1875 -87.46875 C 47.382812 -84.863281 49.125 -80.800781 49.40625 -75.28125 C 49.457031 -74.351562 49.445312 -73.363281 49.375 -72.3125 C 49.300781 -71.257812 49.210938 -70.140625 49.109375 -68.953125 L 43 -20.6875 C 42.164062 -13.851562 40.070312 -8.753906 36.71875 -5.390625 C 33.375 -2.035156 29.191406 -0.234375 24.171875 0.015625 Z M 24.40625 -12.578125 C 25.582031 -12.628906 26.601562 -13.203125 27.46875 -14.296875 C 28.34375 -15.390625 28.914062 -17.242188 29.1875 -19.859375 L 35.53125 -70.78125 C 35.601562 -71.039062 35.660156 -71.53125 35.703125 -72.25 C 35.753906 -72.96875 35.769531 -73.535156 35.75 -73.953125 C 35.664062 -75.628906 35.226562 -76.800781 34.4375 -77.46875 C 33.65625 -78.144531 32.71875 -78.457031 31.625 -78.40625 C 30.445312 -78.34375 29.421875 -77.765625 28.546875 -76.671875 C 27.679688 -75.578125 27.109375 -73.71875 26.828125 -71.09375 L 20.5 -20.171875 C 20.425781 -19.921875 20.363281 -19.4375 20.3125 -18.71875 C 20.269531 -18.007812 20.257812 -17.445312 20.28125 -17.03125 C 20.363281 -15.351562 20.800781 -14.175781 21.59375 -13.5 C 22.382812 -12.820312 23.320312 -12.515625 24.40625 -12.578125 Z M 24.40625 -12.578125 "/></g></g></g><g fill="#453630" fill-opacity="1"><g transform="translate(414.262785, 121.107834)"><g><path d="M 23.921875 0.03125 C 18.566406 0.300781 14.429688 -0.953125 11.515625 -3.734375 C 8.597656 -6.523438 7.007812 -10.476562 6.75 -15.59375 C 6.707031 -16.507812 6.71875 -17.507812 6.78125 -18.59375 C 6.851562 -19.6875 6.945312 -20.828125 7.0625 -22.015625 L 15.34375 -88.90625 L 29.15625 -89.609375 L 20.609375 -20.421875 C 20.421875 -19.160156 20.347656 -18.113281 20.390625 -17.28125 C 20.472656 -15.601562 20.867188 -14.382812 21.578125 -13.625 C 22.296875 -12.863281 22.988281 -12.5 23.65625 -12.53125 C 25.082031 -12.601562 26.207031 -13.207031 27.03125 -14.34375 C 27.851562 -15.476562 28.441406 -17.476562 28.796875 -20.34375 L 37.4375 -90.03125 L 51.25 -90.734375 L 42.5 -20.546875 C 41.613281 -13.453125 39.460938 -8.304688 36.046875 -5.109375 C 32.640625 -1.921875 28.597656 -0.207031 23.921875 0.03125 Z M 23.921875 0.03125 "/></g></g></g><g fill="#453630" fill-opacity="1"><g transform="translate(456.445732, 118.955905)"><g><path d="M 15.96875 -88.9375 L 30.671875 -89.6875 C 35.941406 -89.957031 40.257812 -88.769531 43.625 -86.125 C 47 -83.476562 48.828125 -79.351562 49.109375 -73.75 C 49.160156 -72.738281 49.148438 -71.664062 49.078125 -70.53125 C 49.015625 -69.394531 48.929688 -68.242188 48.828125 -67.078125 L 47.3125 -54.65625 C 46.28125 -47.050781 44.015625 -41.691406 40.515625 -38.578125 C 37.023438 -35.460938 32.601562 -33.765625 27.25 -33.484375 L 22.71875 -33.265625 L 18.828125 -0.953125 L 5.03125 -0.25 Z M 26.875 -46.046875 C 28.539062 -46.128906 29.945312 -46.789062 31.09375 -48.03125 C 32.25 -49.269531 33.035156 -51.492188 33.453125 -54.703125 L 35.171875 -68.125 C 35.296875 -68.894531 35.347656 -69.488281 35.328125 -69.90625 C 35.304688 -70.320312 35.285156 -70.78125 35.265625 -71.28125 C 35.160156 -73.289062 34.660156 -74.773438 33.765625 -75.734375 C 32.878906 -76.703125 31.8125 -77.15625 30.5625 -77.09375 L 28.171875 -76.984375 L 24.359375 -45.921875 Z M 26.875 -46.046875 "/></g></g></g><g fill="#453630" fill-opacity="1"><g transform="translate(497.247699, 116.874425)"><g><path d="M 15.96875 -88.9375 L 42.96875 -90.3125 L 41.265625 -77 L 28.078125 -76.328125 L 25.15625 -52.28125 L 37.09375 -52.890625 L 35.375 -39.578125 L 23.4375 -38.96875 L 20.421875 -14.265625 L 34.234375 -14.96875 L 32.640625 -1.671875 L 5.03125 -0.25 Z M 32.546875 -112.3125 L 45.734375 -112.984375 L 34.203125 -94.765625 L 24.78125 -94.28125 Z M 32.546875 -112.3125 "/></g></g></g><g fill="#453630" fill-opacity="1"><g transform="translate(529.889199, 115.209245)"><g><path d="M 21.65625 0.15625 C 16.632812 0.40625 12.628906 -0.835938 9.640625 -3.578125 C 6.648438 -6.316406 5.023438 -10.195312 4.765625 -15.21875 C 4.671875 -17.15625 4.734375 -19.09375 4.953125 -21.03125 L 5.96875 -28.625 L 19.78125 -29.328125 L 18.53125 -19.203125 C 18.382812 -18.609375 18.320312 -18.0625 18.34375 -17.5625 C 18.375 -17.0625 18.398438 -16.601562 18.421875 -16.1875 C 18.503906 -14.59375 18.9375 -13.5625 19.71875 -13.09375 C 20.5 -12.625 21.265625 -12.410156 22.015625 -12.453125 C 22.523438 -12.472656 23.0625 -12.664062 23.625 -13.03125 C 24.195312 -13.40625 24.710938 -14.039062 25.171875 -14.9375 C 25.628906 -15.84375 25.984375 -17.097656 26.234375 -18.703125 C 26.492188 -20.304688 26.5625 -22.328125 26.4375 -24.765625 C 26.382812 -25.765625 26.226562 -26.738281 25.96875 -27.6875 C 25.707031 -28.644531 25.269531 -29.738281 24.65625 -30.96875 C 24.050781 -32.195312 23.265625 -33.625 22.296875 -35.25 C 21.335938 -36.875 20.171875 -38.875 18.796875 -41.25 C 17.410156 -43.519531 16.210938 -45.550781 15.203125 -47.34375 C 14.191406 -49.144531 13.351562 -50.800781 12.6875 -52.3125 C 12.019531 -53.832031 11.523438 -55.273438 11.203125 -56.640625 C 10.890625 -58.015625 10.691406 -59.457031 10.609375 -60.96875 C 10.097656 -71.019531 11.546875 -78.4375 14.953125 -83.21875 C 18.359375 -88.007812 23.15625 -90.566406 29.34375 -90.890625 C 34.375 -91.140625 38.382812 -89.890625 41.375 -87.140625 C 44.363281 -84.390625 45.988281 -80.507812 46.25 -75.5 C 46.34375 -73.570312 46.273438 -71.632812 46.046875 -69.6875 L 45.234375 -63.359375 L 31.421875 -62.65625 L 32.484375 -71.53125 C 32.617188 -72.113281 32.671875 -72.65625 32.640625 -73.15625 C 32.617188 -73.65625 32.597656 -74.117188 32.578125 -74.546875 C 32.492188 -76.140625 32.0625 -77.164062 31.28125 -77.625 C 30.5 -78.09375 29.734375 -78.304688 28.984375 -78.265625 C 28.484375 -78.242188 27.945312 -78.050781 27.375 -77.6875 C 26.800781 -77.320312 26.289062 -76.6875 25.84375 -75.78125 C 25.394531 -74.875 25.039062 -73.613281 24.78125 -72 C 24.519531 -70.394531 24.453125 -68.382812 24.578125 -65.96875 C 24.628906 -64.957031 24.804688 -63.972656 25.109375 -63.015625 C 25.410156 -62.066406 25.863281 -60.976562 26.46875 -59.75 C 27.070312 -58.53125 27.851562 -57.101562 28.8125 -55.46875 C 29.78125 -53.84375 30.957031 -51.847656 32.34375 -49.484375 C 33.71875 -47.117188 34.910156 -45.0625 35.921875 -43.3125 C 36.941406 -41.5625 37.765625 -39.921875 38.390625 -38.390625 C 39.015625 -36.867188 39.484375 -35.421875 39.796875 -34.046875 C 40.109375 -32.679688 40.304688 -31.25 40.390625 -29.75 C 40.898438 -19.707031 39.429688 -12.289062 35.984375 -7.5 C 32.535156 -2.707031 27.757812 -0.15625 21.65625 0.15625 Z M 21.65625 0.15625 "/></g></g></g><g fill="#453630" fill-opacity="1"><g transform="translate(567.555708, 113.287718)"><g/></g></g><g fill="#453630" fill-opacity="1"><g transform="translate(582.620949, 112.519177)"><g/></g></g></g></g><g fill="#453630" fill-opacity="1"><g transform="translate(397.252406, 220.764631)"><g><path d="M 16.578125 -20.25 L 9.0625 -19.84375 L 10.125 -0.5625 L 8.03125 -0.4375 L 6.96875 -19.71875 L -0.5625 -19.3125 L -0.65625 -21.171875 L 16.484375 -22.109375 Z M 16.578125 -20.25 "/></g></g></g><g fill="#453630" fill-opacity="1"><g transform="translate(411.481254, 219.980998)"><g><path d="M 8.9375 -0.1875 C 7.832031 -0.132812 6.789062 -0.296875 5.8125 -0.671875 C 4.84375 -1.046875 3.988281 -1.582031 3.25 -2.28125 C 2.519531 -2.988281 1.929688 -3.816406 1.484375 -4.765625 C 1.035156 -5.710938 0.785156 -6.742188 0.734375 -7.859375 C 0.648438 -9.304688 0.90625 -10.65625 1.5 -11.90625 C 2.101562 -13.15625 2.96875 -14.171875 4.09375 -14.953125 C 5.21875 -15.734375 6.523438 -16.164062 8.015625 -16.25 C 9.546875 -16.332031 10.90625 -16.039062 12.09375 -15.375 C 13.28125 -14.71875 14.234375 -13.800781 14.953125 -12.625 C 15.671875 -11.457031 16.066406 -10.160156 16.140625 -8.734375 C 16.148438 -8.578125 16.160156 -8.421875 16.171875 -8.265625 C 16.179688 -8.117188 16.175781 -8.003906 16.15625 -7.921875 L 2.890625 -7.203125 C 3.046875 -6.085938 3.410156 -5.113281 3.984375 -4.28125 C 4.566406 -3.457031 5.289062 -2.816406 6.15625 -2.359375 C 7.03125 -1.898438 7.960938 -1.695312 8.953125 -1.75 C 9.960938 -1.800781 10.90625 -2.109375 11.78125 -2.671875 C 12.65625 -3.242188 13.25 -3.957031 13.5625 -4.8125 L 15.328125 -4.4375 C 15.054688 -3.675781 14.613281 -2.976562 14 -2.34375 C 13.382812 -1.71875 12.640625 -1.21875 11.765625 -0.84375 C 10.898438 -0.46875 9.957031 -0.25 8.9375 -0.1875 Z M 2.75 -8.65625 L 14.21875 -9.296875 C 14.070312 -10.421875 13.710938 -11.394531 13.140625 -12.21875 C 12.566406 -13.050781 11.84375 -13.6875 10.96875 -14.125 C 10.101562 -14.5625 9.160156 -14.75 8.140625 -14.6875 C 7.128906 -14.632812 6.222656 -14.34375 5.421875 -13.8125 C 4.617188 -13.28125 3.976562 -12.566406 3.5 -11.671875 C 3.019531 -10.785156 2.769531 -9.78125 2.75 -8.65625 Z M 2.75 -8.65625 "/></g></g></g><g fill="#453630" fill-opacity="1"><g transform="translate(428.3594, 219.051458)"><g><path d="M 7.328125 -0.109375 C 6.054688 -0.0351562 4.863281 -0.175781 3.75 -0.53125 C 2.644531 -0.894531 1.671875 -1.476562 0.828125 -2.28125 L 1.578125 -3.765625 C 2.492188 -2.992188 3.398438 -2.445312 4.296875 -2.125 C 5.203125 -1.8125 6.15625 -1.6875 7.15625 -1.75 C 8.363281 -1.8125 9.332031 -2.101562 10.0625 -2.625 C 10.789062 -3.15625 11.128906 -3.878906 11.078125 -4.796875 C 11.046875 -5.410156 10.835938 -5.867188 10.453125 -6.171875 C 10.066406 -6.472656 9.523438 -6.707031 8.828125 -6.875 C 8.128906 -7.050781 7.296875 -7.234375 6.328125 -7.421875 C 5.242188 -7.660156 4.332031 -7.921875 3.59375 -8.203125 C 2.851562 -8.492188 2.285156 -8.878906 1.890625 -9.359375 C 1.492188 -9.847656 1.269531 -10.5 1.21875 -11.3125 C 1.164062 -12.332031 1.375 -13.1875 1.84375 -13.875 C 2.320312 -14.570312 2.988281 -15.113281 3.84375 -15.5 C 4.695312 -15.894531 5.671875 -16.125 6.765625 -16.1875 C 7.960938 -16.25 9.023438 -16.117188 9.953125 -15.796875 C 10.890625 -15.484375 11.671875 -15.003906 12.296875 -14.359375 L 11.390625 -12.921875 C 10.785156 -13.535156 10.09375 -13.972656 9.3125 -14.234375 C 8.53125 -14.492188 7.675781 -14.601562 6.75 -14.5625 C 6.113281 -14.519531 5.515625 -14.398438 4.953125 -14.203125 C 4.390625 -14.003906 3.929688 -13.695312 3.578125 -13.28125 C 3.234375 -12.875 3.082031 -12.335938 3.125 -11.671875 C 3.15625 -11.109375 3.316406 -10.679688 3.609375 -10.390625 C 3.910156 -10.097656 4.34375 -9.863281 4.90625 -9.6875 C 5.46875 -9.507812 6.160156 -9.320312 6.984375 -9.125 C 8.171875 -8.875 9.207031 -8.609375 10.09375 -8.328125 C 10.988281 -8.054688 11.691406 -7.671875 12.203125 -7.171875 C 12.710938 -6.679688 12.992188 -5.976562 13.046875 -5.0625 C 13.117188 -3.601562 12.628906 -2.4375 11.578125 -1.5625 C 10.535156 -0.6875 9.117188 -0.203125 7.328125 -0.109375 Z M 7.328125 -0.109375 "/></g></g></g><g fill="#453630" fill-opacity="1"><g transform="translate(442.141724, 218.292417)"><g><path d="M 9.625 -1.28125 C 9.476562 -1.207031 9.238281 -1.082031 8.90625 -0.90625 C 8.570312 -0.726562 8.171875 -0.566406 7.703125 -0.421875 C 7.234375 -0.285156 6.722656 -0.203125 6.171875 -0.171875 C 5.597656 -0.140625 5.050781 -0.21875 4.53125 -0.40625 C 4.007812 -0.59375 3.585938 -0.898438 3.265625 -1.328125 C 2.953125 -1.753906 2.773438 -2.296875 2.734375 -2.953125 L 2.125 -14.0625 L -0.015625 -13.953125 L -0.109375 -15.546875 L 2.03125 -15.65625 L 1.75 -20.90625 L 3.78125 -21.015625 L 4.0625 -15.765625 L 7.625 -15.96875 L 7.71875 -14.375 L 4.15625 -14.171875 L 4.734375 -3.640625 C 4.804688 -3.085938 5.03125 -2.679688 5.40625 -2.421875 C 5.78125 -2.160156 6.207031 -2.046875 6.6875 -2.078125 C 7.238281 -2.109375 7.738281 -2.226562 8.1875 -2.4375 C 8.632812 -2.65625 8.910156 -2.804688 9.015625 -2.890625 Z M 9.625 -1.28125 "/></g></g></g><g fill="#453630" fill-opacity="1"><g transform="translate(451.250554, 217.790761)"><g><path d="M 8.9375 -0.1875 C 7.832031 -0.132812 6.789062 -0.296875 5.8125 -0.671875 C 4.84375 -1.046875 3.988281 -1.582031 3.25 -2.28125 C 2.519531 -2.988281 1.929688 -3.816406 1.484375 -4.765625 C 1.035156 -5.710938 0.785156 -6.742188 0.734375 -7.859375 C 0.648438 -9.304688 0.90625 -10.65625 1.5 -11.90625 C 2.101562 -13.15625 2.96875 -14.171875 4.09375 -14.953125 C 5.21875 -15.734375 6.523438 -16.164062 8.015625 -16.25 C 9.546875 -16.332031 10.90625 -16.039062 12.09375 -15.375 C 13.28125 -14.71875 14.234375 -13.800781 14.953125 -12.625 C 15.671875 -11.457031 16.066406 -10.160156 16.140625 -8.734375 C 16.148438 -8.578125 16.160156 -8.421875 16.171875 -8.265625 C 16.179688 -8.117188 16.175781 -8.003906 16.15625 -7.921875 L 2.890625 -7.203125 C 3.046875 -6.085938 3.410156 -5.113281 3.984375 -4.28125 C 4.566406 -3.457031 5.289062 -2.816406 6.15625 -2.359375 C 7.03125 -1.898438 7.960938 -1.695312 8.953125 -1.75 C 9.960938 -1.800781 10.90625 -2.109375 11.78125 -2.671875 C 12.65625 -3.242188 13.25 -3.957031 13.5625 -4.8125 L 15.328125 -4.4375 C 15.054688 -3.675781 14.613281 -2.976562 14 -2.34375 C 13.382812 -1.71875 12.640625 -1.21875 11.765625 -0.84375 C 10.898438 -0.46875 9.957031 -0.25 8.9375 -0.1875 Z M 2.75 -8.65625 L 14.21875 -9.296875 C 14.070312 -10.421875 13.710938 -11.394531 13.140625 -12.21875 C 12.566406 -13.050781 11.84375 -13.6875 10.96875 -14.125 C 10.101562 -14.5625 9.160156 -14.75 8.140625 -14.6875 C 7.128906 -14.632812 6.222656 -14.34375 5.421875 -13.8125 C 4.617188 -13.28125 3.976562 -12.566406 3.5 -11.671875 C 3.019531 -10.785156 2.769531 -9.78125 2.75 -8.65625 Z M 2.75 -8.65625 "/></g></g></g><g fill="#453630" fill-opacity="1"><g transform="translate(468.1287, 216.861222)"><g/></g></g><g fill="#453630" fill-opacity="1"><g transform="translate(475.124045, 216.475963)"><g><path d="M 8.9375 -0.1875 C 7.832031 -0.132812 6.789062 -0.296875 5.8125 -0.671875 C 4.84375 -1.046875 3.988281 -1.582031 3.25 -2.28125 C 2.519531 -2.988281 1.929688 -3.816406 1.484375 -4.765625 C 1.035156 -5.710938 0.785156 -6.742188 0.734375 -7.859375 C 0.648438 -9.304688 0.90625 -10.65625 1.5 -11.90625 C 2.101562 -13.15625 2.96875 -14.171875 4.09375 -14.953125 C 5.21875 -15.734375 6.523438 -16.164062 8.015625 -16.25 C 9.546875 -16.332031 10.90625 -16.039062 12.09375 -15.375 C 13.28125 -14.71875 14.234375 -13.800781 14.953125 -12.625 C 15.671875 -11.457031 16.066406 -10.160156 16.140625 -8.734375 C 16.148438 -8.578125 16.160156 -8.421875 16.171875 -8.265625 C 16.179688 -8.117188 16.175781 -8.003906 16.15625 -7.921875 L 2.890625 -7.203125 C 3.046875 -6.085938 3.410156 -5.113281 3.984375 -4.28125 C 4.566406 -3.457031 5.289062 -2.816406 6.15625 -2.359375 C 7.03125 -1.898438 7.960938 -1.695312 8.953125 -1.75 C 9.960938 -1.800781 10.90625 -2.109375 11.78125 -2.671875 C 12.65625 -3.242188 13.25 -3.957031 13.5625 -4.8125 L 15.328125 -4.4375 C 15.054688 -3.675781 14.613281 -2.976562 14 -2.34375 C 13.382812 -1.71875 12.640625 -1.21875 11.765625 -0.84375 C 10.898438 -0.46875 9.957031 -0.25 8.9375 -0.1875 Z M 2.75 -8.65625 L 14.21875 -9.296875 C 14.070312 -10.421875 13.710938 -11.394531 13.140625 -12.21875 C 12.566406 -13.050781 11.84375 -13.6875 10.96875 -14.125 C 10.101562 -14.5625 9.160156 -14.75 8.140625 -14.6875 C 7.128906 -14.632812 6.222656 -14.34375 5.421875 -13.8125 C 4.617188 -13.28125 3.976562 -12.566406 3.5 -11.671875 C 3.019531 -10.785156 2.769531 -9.78125 2.75 -8.65625 Z M 2.75 -8.65625 "/></g></g></g><g fill="#453630" fill-opacity="1"><g transform="translate(491.853357, 215.55462)"><g><path d="M 9.625 -1.28125 C 9.476562 -1.207031 9.238281 -1.082031 8.90625 -0.90625 C 8.570312 -0.726562 8.171875 -0.566406 7.703125 -0.421875 C 7.234375 -0.285156 6.722656 -0.203125 6.171875 -0.171875 C 5.597656 -0.140625 5.050781 -0.21875 4.53125 -0.40625 C 4.007812 -0.59375 3.585938 -0.898438 3.265625 -1.328125 C 2.953125 -1.753906 2.773438 -2.296875 2.734375 -2.953125 L 2.125 -14.0625 L -0.015625 -13.953125 L -0.109375 -15.546875 L 2.03125 -15.65625 L 1.75 -20.90625 L 3.78125 -21.015625 L 4.0625 -15.765625 L 7.625 -15.96875 L 7.71875 -14.375 L 4.15625 -14.171875 L 4.734375 -3.640625 C 4.804688 -3.085938 5.03125 -2.679688 5.40625 -2.421875 C 5.78125 -2.160156 6.207031 -2.046875 6.6875 -2.078125 C 7.238281 -2.109375 7.738281 -2.226562 8.1875 -2.4375 C 8.632812 -2.65625 8.910156 -2.804688 9.015625 -2.890625 Z M 9.625 -1.28125 "/></g></g></g><g fill="#453630" fill-opacity="1"><g transform="translate(501.230099, 215.03821)"><g/></g></g><g fill="#453630" fill-opacity="1"><g transform="translate(508.225445, 214.652951)"><g><path d="M 0.765625 -7.765625 C 0.679688 -9.234375 0.910156 -10.597656 1.453125 -11.859375 C 1.992188 -13.117188 2.773438 -14.140625 3.796875 -14.921875 C 4.828125 -15.710938 6.023438 -16.144531 7.390625 -16.21875 C 8.679688 -16.289062 9.859375 -16.015625 10.921875 -15.390625 C 11.992188 -14.773438 12.84375 -13.992188 13.46875 -13.046875 L 12.9375 -22.515625 L 14.953125 -22.625 L 16.015625 -3.328125 C 16.035156 -3.054688 16.109375 -2.859375 16.234375 -2.734375 C 16.359375 -2.609375 16.539062 -2.539062 16.78125 -2.53125 L 16.875 -0.921875 C 16.476562 -0.835938 16.171875 -0.800781 15.953125 -0.8125 C 15.546875 -0.8125 15.175781 -0.960938 14.84375 -1.265625 C 14.507812 -1.566406 14.332031 -1.90625 14.3125 -2.28125 L 14.21875 -3.8125 C 13.65625 -2.75 12.863281 -1.890625 11.84375 -1.234375 C 10.820312 -0.585938 9.742188 -0.234375 8.609375 -0.171875 C 7.535156 -0.117188 6.535156 -0.285156 5.609375 -0.671875 C 4.691406 -1.054688 3.878906 -1.609375 3.171875 -2.328125 C 2.460938 -3.046875 1.894531 -3.875 1.46875 -4.8125 C 1.050781 -5.75 0.816406 -6.734375 0.765625 -7.765625 Z M 13.84375 -6.109375 L 13.578125 -10.90625 C 13.285156 -11.59375 12.832031 -12.210938 12.21875 -12.765625 C 11.613281 -13.328125 10.941406 -13.765625 10.203125 -14.078125 C 9.460938 -14.390625 8.734375 -14.523438 8.015625 -14.484375 C 7.179688 -14.441406 6.429688 -14.222656 5.765625 -13.828125 C 5.109375 -13.441406 4.554688 -12.9375 4.109375 -12.3125 C 3.660156 -11.695312 3.328125 -11.003906 3.109375 -10.234375 C 2.898438 -9.460938 2.816406 -8.679688 2.859375 -7.890625 C 2.898438 -7.054688 3.082031 -6.269531 3.40625 -5.53125 C 3.738281 -4.800781 4.1875 -4.15625 4.75 -3.59375 C 5.3125 -3.03125 5.953125 -2.609375 6.671875 -2.328125 C 7.390625 -2.054688 8.15625 -1.941406 8.96875 -1.984375 C 9.488281 -2.015625 10.019531 -2.144531 10.5625 -2.375 C 11.101562 -2.601562 11.617188 -2.90625 12.109375 -3.28125 C 12.597656 -3.65625 13 -4.085938 13.3125 -4.578125 C 13.625 -5.078125 13.800781 -5.585938 13.84375 -6.109375 Z M 13.84375 -6.109375 "/></g></g></g><g fill="#453630" fill-opacity="1"><g transform="translate(526.145449, 213.666033)"><g><path d="M 8.9375 -0.1875 C 7.832031 -0.132812 6.789062 -0.296875 5.8125 -0.671875 C 4.84375 -1.046875 3.988281 -1.582031 3.25 -2.28125 C 2.519531 -2.988281 1.929688 -3.816406 1.484375 -4.765625 C 1.035156 -5.710938 0.785156 -6.742188 0.734375 -7.859375 C 0.648438 -9.304688 0.90625 -10.65625 1.5 -11.90625 C 2.101562 -13.15625 2.96875 -14.171875 4.09375 -14.953125 C 5.21875 -15.734375 6.523438 -16.164062 8.015625 -16.25 C 9.546875 -16.332031 10.90625 -16.039062 12.09375 -15.375 C 13.28125 -14.71875 14.234375 -13.800781 14.953125 -12.625 C 15.671875 -11.457031 16.066406 -10.160156 16.140625 -8.734375 C 16.148438 -8.578125 16.160156 -8.421875 16.171875 -8.265625 C 16.179688 -8.117188 16.175781 -8.003906 16.15625 -7.921875 L 2.890625 -7.203125 C 3.046875 -6.085938 3.410156 -5.113281 3.984375 -4.28125 C 4.566406 -3.457031 5.289062 -2.816406 6.15625 -2.359375 C 7.03125 -1.898438 7.960938 -1.695312 8.953125 -1.75 C 9.960938 -1.800781 10.90625 -2.109375 11.78125 -2.671875 C 12.65625 -3.242188 13.25 -3.957031 13.5625 -4.8125 L 15.328125 -4.4375 C 15.054688 -3.675781 14.613281 -2.976562 14 -2.34375 C 13.382812 -1.71875 12.640625 -1.21875 11.765625 -0.84375 C 10.898438 -0.46875 9.957031 -0.25 8.9375 -0.1875 Z M 2.75 -8.65625 L 14.21875 -9.296875 C 14.070312 -10.421875 13.710938 -11.394531 13.140625 -12.21875 C 12.566406 -13.050781 11.84375 -13.6875 10.96875 -14.125 C 10.101562 -14.5625 9.160156 -14.75 8.140625 -14.6875 C 7.128906 -14.632812 6.222656 -14.34375 5.421875 -13.8125 C 4.617188 -13.28125 3.976562 -12.566406 3.5 -11.671875 C 3.019531 -10.785156 2.769531 -9.78125 2.75 -8.65625 Z M 8.5 -18.984375 L 7.125 -19.40625 L 8.734375 -22.28125 L 10.875 -22.40625 Z M 8.5 -18.984375 "/></g></g></g><g fill="#453630" fill-opacity="1"><g transform="translate(543.023595, 212.736494)"><g><path d="M 8.96875 -0.203125 C 7.84375 -0.140625 6.796875 -0.296875 5.828125 -0.671875 C 4.867188 -1.046875 4.015625 -1.585938 3.265625 -2.296875 C 2.523438 -3.015625 1.929688 -3.847656 1.484375 -4.796875 C 1.035156 -5.742188 0.785156 -6.765625 0.734375 -7.859375 C 0.648438 -9.328125 0.898438 -10.6875 1.484375 -11.9375 C 2.078125 -13.1875 2.9375 -14.195312 4.0625 -14.96875 C 5.1875 -15.738281 6.515625 -16.164062 8.046875 -16.25 C 9.503906 -16.332031 10.804688 -16.070312 11.953125 -15.46875 C 13.097656 -14.875 13.972656 -14.03125 14.578125 -12.9375 L 12.65625 -12.203125 C 12.164062 -12.960938 11.515625 -13.546875 10.703125 -13.953125 C 9.898438 -14.359375 9.023438 -14.535156 8.078125 -14.484375 C 7.035156 -14.429688 6.101562 -14.113281 5.28125 -13.53125 C 4.457031 -12.945312 3.816406 -12.171875 3.359375 -11.203125 C 2.910156 -10.234375 2.722656 -9.15625 2.796875 -7.96875 C 2.859375 -6.789062 3.171875 -5.742188 3.734375 -4.828125 C 4.304688 -3.910156 5.03125 -3.191406 5.90625 -2.671875 C 6.789062 -2.148438 7.753906 -1.914062 8.796875 -1.96875 C 9.460938 -2.007812 10.101562 -2.164062 10.71875 -2.4375 C 11.332031 -2.707031 11.859375 -3.054688 12.296875 -3.484375 C 12.742188 -3.921875 13.035156 -4.382812 13.171875 -4.875 L 15.1875 -4.390625 C 14.957031 -3.640625 14.535156 -2.953125 13.921875 -2.328125 C 13.316406 -1.710938 12.585938 -1.21875 11.734375 -0.84375 C 10.890625 -0.46875 9.96875 -0.253906 8.96875 -0.203125 Z M 8.96875 -0.203125 "/></g></g></g><g fill="#453630" fill-opacity="1"><g transform="translate(558.621736, 211.877448)"><g><path d="M 8.859375 -0.1875 C 7.742188 -0.125 6.707031 -0.28125 5.75 -0.65625 C 4.789062 -1.03125 3.945312 -1.570312 3.21875 -2.28125 C 2.488281 -2.988281 1.90625 -3.8125 1.46875 -4.75 C 1.039062 -5.6875 0.796875 -6.691406 0.734375 -7.765625 C 0.671875 -8.878906 0.800781 -9.925781 1.125 -10.90625 C 1.457031 -11.894531 1.945312 -12.78125 2.59375 -13.5625 C 3.25 -14.34375 4.035156 -14.96875 4.953125 -15.4375 C 5.867188 -15.914062 6.882812 -16.1875 8 -16.25 C 9.101562 -16.3125 10.132812 -16.15625 11.09375 -15.78125 C 12.0625 -15.414062 12.910156 -14.878906 13.640625 -14.171875 C 14.367188 -13.460938 14.945312 -12.632812 15.375 -11.6875 C 15.8125 -10.75 16.0625 -9.722656 16.125 -8.609375 C 16.1875 -7.535156 16.050781 -6.507812 15.71875 -5.53125 C 15.394531 -4.550781 14.914062 -3.671875 14.28125 -2.890625 C 13.644531 -2.109375 12.863281 -1.476562 11.9375 -1 C 11.007812 -0.519531 9.984375 -0.25 8.859375 -0.1875 Z M 2.796875 -7.84375 C 2.859375 -6.695312 3.164062 -5.664062 3.71875 -4.75 C 4.28125 -3.84375 5 -3.140625 5.875 -2.640625 C 6.757812 -2.140625 7.722656 -1.914062 8.765625 -1.96875 C 9.796875 -2.03125 10.722656 -2.363281 11.546875 -2.96875 C 12.367188 -3.570312 13.007812 -4.363281 13.46875 -5.34375 C 13.9375 -6.332031 14.140625 -7.394531 14.078125 -8.53125 C 14.015625 -9.6875 13.695312 -10.726562 13.125 -11.65625 C 12.5625 -12.582031 11.835938 -13.300781 10.953125 -13.8125 C 10.066406 -14.320312 9.109375 -14.546875 8.078125 -14.484375 C 7.035156 -14.429688 6.109375 -14.09375 5.296875 -13.46875 C 4.492188 -12.84375 3.859375 -12.039062 3.390625 -11.0625 C 2.929688 -10.09375 2.734375 -9.019531 2.796875 -7.84375 Z M 2.796875 -7.84375 "/></g></g></g><g fill="#453630" fill-opacity="1"><g transform="translate(575.738016, 210.934794)"><g><path d="M 1.734375 -6.5 L 1.234375 -15.609375 L 3.25 -15.71875 L 3.734375 -6.96875 C 3.835938 -5.207031 4.210938 -3.90625 4.859375 -3.0625 C 5.515625 -2.226562 6.4375 -1.84375 7.625 -1.90625 C 8.414062 -1.945312 9.175781 -2.160156 9.90625 -2.546875 C 10.632812 -2.941406 11.265625 -3.476562 11.796875 -4.15625 C 12.335938 -4.832031 12.738281 -5.601562 13 -6.46875 L 12.453125 -16.234375 L 14.484375 -16.34375 L 15.203125 -3.28125 C 15.222656 -3.007812 15.289062 -2.8125 15.40625 -2.6875 C 15.53125 -2.5625 15.707031 -2.5 15.9375 -2.5 L 16.03125 -0.890625 C 15.800781 -0.847656 15.617188 -0.816406 15.484375 -0.796875 C 15.347656 -0.785156 15.21875 -0.773438 15.09375 -0.765625 C 14.695312 -0.785156 14.347656 -0.925781 14.046875 -1.1875 C 13.742188 -1.445312 13.570312 -1.78125 13.53125 -2.1875 L 13.359375 -4.265625 C 12.742188 -3.035156 11.875 -2.050781 10.75 -1.3125 C 9.625 -0.570312 8.382812 -0.164062 7.03125 -0.09375 C 5.414062 0 4.160156 -0.492188 3.265625 -1.578125 C 2.367188 -2.660156 1.859375 -4.300781 1.734375 -6.5 Z M 1.734375 -6.5 "/></g></g></g><g fill="#453630" fill-opacity="1"><g transform="translate(592.824529, 209.993779)"><g><path d="M 6.84375 -0.375 L -0.296875 -15.53125 L 1.828125 -15.640625 L 7.859375 -2.46875 L 12.453125 -16.234375 L 14.453125 -16.34375 L 9.015625 -0.5 Z M 6.84375 -0.375 "/></g></g></g><g fill="#453630" fill-opacity="1"><g transform="translate(608.095224, 209.152768)"><g><path d="M 9.21875 -14.28125 C 7.863281 -14.164062 6.695312 -13.71875 5.71875 -12.9375 C 4.738281 -12.164062 4.078125 -11.144531 3.734375 -9.875 L 4.265625 -0.234375 L 2.234375 -0.125 L 1.375 -15.625 L 3.28125 -15.734375 L 3.484375 -12.03125 C 3.972656 -13.144531 4.640625 -14.0625 5.484375 -14.78125 C 6.328125 -15.5 7.238281 -15.925781 8.21875 -16.0625 C 8.414062 -16.09375 8.585938 -16.113281 8.734375 -16.125 C 8.890625 -16.132812 9.015625 -16.128906 9.109375 -16.109375 Z M 9.21875 -14.28125 "/></g></g></g><g fill="#453630" fill-opacity="1"><g transform="translate(617.471967, 208.636357)"><g><path d="M 8.9375 -0.1875 C 7.832031 -0.132812 6.789062 -0.296875 5.8125 -0.671875 C 4.84375 -1.046875 3.988281 -1.582031 3.25 -2.28125 C 2.519531 -2.988281 1.929688 -3.816406 1.484375 -4.765625 C 1.035156 -5.710938 0.785156 -6.742188 0.734375 -7.859375 C 0.648438 -9.304688 0.90625 -10.65625 1.5 -11.90625 C 2.101562 -13.15625 2.96875 -14.171875 4.09375 -14.953125 C 5.21875 -15.734375 6.523438 -16.164062 8.015625 -16.25 C 9.546875 -16.332031 10.90625 -16.039062 12.09375 -15.375 C 13.28125 -14.71875 14.234375 -13.800781 14.953125 -12.625 C 15.671875 -11.457031 16.066406 -10.160156 16.140625 -8.734375 C 16.148438 -8.578125 16.160156 -8.421875 16.171875 -8.265625 C 16.179688 -8.117188 16.175781 -8.003906 16.15625 -7.921875 L 2.890625 -7.203125 C 3.046875 -6.085938 3.410156 -5.113281 3.984375 -4.28125 C 4.566406 -3.457031 5.289062 -2.816406 6.15625 -2.359375 C 7.03125 -1.898438 7.960938 -1.695312 8.953125 -1.75 C 9.960938 -1.800781 10.90625 -2.109375 11.78125 -2.671875 C 12.65625 -3.242188 13.25 -3.957031 13.5625 -4.8125 L 15.328125 -4.4375 C 15.054688 -3.675781 14.613281 -2.976562 14 -2.34375 C 13.382812 -1.71875 12.640625 -1.21875 11.765625 -0.84375 C 10.898438 -0.46875 9.957031 -0.25 8.9375 -0.1875 Z M 2.75 -8.65625 L 14.21875 -9.296875 C 14.070312 -10.421875 13.710938 -11.394531 13.140625 -12.21875 C 12.566406 -13.050781 11.84375 -13.6875 10.96875 -14.125 C 10.101562 -14.5625 9.160156 -14.75 8.140625 -14.6875 C 7.128906 -14.632812 6.222656 -14.34375 5.421875 -13.8125 C 4.617188 -13.28125 3.976562 -12.566406 3.5 -11.671875 C 3.019531 -10.785156 2.769531 -9.78125 2.75 -8.65625 Z M 2.75 -8.65625 "/></g></g></g><g fill="#453630" fill-opacity="1"><g transform="translate(634.350112, 207.706818)"><g/></g></g><g fill="#453630" fill-opacity="1"><g transform="translate(641.345446, 207.32156)"><g><path d="M 1.125 -21.859375 L 3.15625 -21.96875 L 4.171875 -3.75 C 4.210938 -2.976562 4.375 -2.476562 4.65625 -2.25 C 4.9375 -2.03125 5.273438 -1.929688 5.671875 -1.953125 C 6.023438 -1.972656 6.378906 -2.03125 6.734375 -2.125 C 7.085938 -2.226562 7.394531 -2.328125 7.65625 -2.421875 L 8.109375 -0.8125 C 7.742188 -0.632812 7.289062 -0.476562 6.75 -0.34375 C 6.207031 -0.21875 5.738281 -0.144531 5.34375 -0.125 C 4.4375 -0.0703125 3.691406 -0.296875 3.109375 -0.796875 C 2.535156 -1.304688 2.222656 -2.023438 2.171875 -2.953125 Z M 1.125 -21.859375 "/></g></g></g><g fill="#453630" fill-opacity="1"><g transform="translate(648.846849, 206.908431)"><g><path d="M 8.9375 -0.1875 C 7.832031 -0.132812 6.789062 -0.296875 5.8125 -0.671875 C 4.84375 -1.046875 3.988281 -1.582031 3.25 -2.28125 C 2.519531 -2.988281 1.929688 -3.816406 1.484375 -4.765625 C 1.035156 -5.710938 0.785156 -6.742188 0.734375 -7.859375 C 0.648438 -9.304688 0.90625 -10.65625 1.5 -11.90625 C 2.101562 -13.15625 2.96875 -14.171875 4.09375 -14.953125 C 5.21875 -15.734375 6.523438 -16.164062 8.015625 -16.25 C 9.546875 -16.332031 10.90625 -16.039062 12.09375 -15.375 C 13.28125 -14.71875 14.234375 -13.800781 14.953125 -12.625 C 15.671875 -11.457031 16.066406 -10.160156 16.140625 -8.734375 C 16.148438 -8.578125 16.160156 -8.421875 16.171875 -8.265625 C 16.179688 -8.117188 16.175781 -8.003906 16.15625 -7.921875 L 2.890625 -7.203125 C 3.046875 -6.085938 3.410156 -5.113281 3.984375 -4.28125 C 4.566406 -3.457031 5.289062 -2.816406 6.15625 -2.359375 C 7.03125 -1.898438 7.960938 -1.695312 8.953125 -1.75 C 9.960938 -1.800781 10.90625 -2.109375 11.78125 -2.671875 C 12.65625 -3.242188 13.25 -3.957031 13.5625 -4.8125 L 15.328125 -4.4375 C 15.054688 -3.675781 14.613281 -2.976562 14 -2.34375 C 13.382812 -1.71875 12.640625 -1.21875 11.765625 -0.84375 C 10.898438 -0.46875 9.957031 -0.25 8.9375 -0.1875 Z M 2.75 -8.65625 L 14.21875 -9.296875 C 14.070312 -10.421875 13.710938 -11.394531 13.140625 -12.21875 C 12.566406 -13.050781 11.84375 -13.6875 10.96875 -14.125 C 10.101562 -14.5625 9.160156 -14.75 8.140625 -14.6875 C 7.128906 -14.632812 6.222656 -14.34375 5.421875 -13.8125 C 4.617188 -13.28125 3.976562 -12.566406 3.5 -11.671875 C 3.019531 -10.785156 2.769531 -9.78125 2.75 -8.65625 Z M 2.75 -8.65625 "/></g></g></g><g fill="#453630" fill-opacity="1"><g transform="translate(665.724995, 205.978891)"><g><path d="M 7.328125 -0.109375 C 6.054688 -0.0351562 4.863281 -0.175781 3.75 -0.53125 C 2.644531 -0.894531 1.671875 -1.476562 0.828125 -2.28125 L 1.578125 -3.765625 C 2.492188 -2.992188 3.398438 -2.445312 4.296875 -2.125 C 5.203125 -1.8125 6.15625 -1.6875 7.15625 -1.75 C 8.363281 -1.8125 9.332031 -2.101562 10.0625 -2.625 C 10.789062 -3.15625 11.128906 -3.878906 11.078125 -4.796875 C 11.046875 -5.410156 10.835938 -5.867188 10.453125 -6.171875 C 10.066406 -6.472656 9.523438 -6.707031 8.828125 -6.875 C 8.128906 -7.050781 7.296875 -7.234375 6.328125 -7.421875 C 5.242188 -7.660156 4.332031 -7.921875 3.59375 -8.203125 C 2.851562 -8.492188 2.285156 -8.878906 1.890625 -9.359375 C 1.492188 -9.847656 1.269531 -10.5 1.21875 -11.3125 C 1.164062 -12.332031 1.375 -13.1875 1.84375 -13.875 C 2.320312 -14.570312 2.988281 -15.113281 3.84375 -15.5 C 4.695312 -15.894531 5.671875 -16.125 6.765625 -16.1875 C 7.960938 -16.25 9.023438 -16.117188 9.953125 -15.796875 C 10.890625 -15.484375 11.671875 -15.003906 12.296875 -14.359375 L 11.390625 -12.921875 C 10.785156 -13.535156 10.09375 -13.972656 9.3125 -14.234375 C 8.53125 -14.492188 7.675781 -14.601562 6.75 -14.5625 C 6.113281 -14.519531 5.515625 -14.398438 4.953125 -14.203125 C 4.390625 -14.003906 3.929688 -13.695312 3.578125 -13.28125 C 3.234375 -12.875 3.082031 -12.335938 3.125 -11.671875 C 3.15625 -11.109375 3.316406 -10.679688 3.609375 -10.390625 C 3.910156 -10.097656 4.34375 -9.863281 4.90625 -9.6875 C 5.46875 -9.507812 6.160156 -9.320312 6.984375 -9.125 C 8.171875 -8.875 9.207031 -8.609375 10.09375 -8.328125 C 10.988281 -8.054688 11.691406 -7.671875 12.203125 -7.171875 C 12.710938 -6.679688 12.992188 -5.976562 13.046875 -5.0625 C 13.117188 -3.601562 12.628906 -2.4375 11.578125 -1.5625 C 10.535156 -0.6875 9.117188 -0.203125 7.328125 -0.109375 Z M 7.328125 -0.109375 "/></g></g></g><g fill="#453630" fill-opacity="1"><g transform="translate(679.507307, 205.21985)"><g/></g></g><g fill="#453630" fill-opacity="1"><g transform="translate(686.502664, 204.834591)"><g><path d="M 10.171875 -0.265625 C 8.878906 -0.191406 7.703125 -0.460938 6.640625 -1.078125 C 5.578125 -1.703125 4.726562 -2.492188 4.09375 -3.453125 L 4.609375 6.09375 L 2.578125 6.203125 L 1.375 -15.625 L 3.1875 -15.71875 L 3.359375 -12.71875 C 3.929688 -13.738281 4.710938 -14.570312 5.703125 -15.21875 C 6.691406 -15.875 7.773438 -16.238281 8.953125 -16.3125 C 10.023438 -16.363281 11.019531 -16.191406 11.9375 -15.796875 C 12.851562 -15.410156 13.65625 -14.859375 14.34375 -14.140625 C 15.039062 -13.421875 15.597656 -12.585938 16.015625 -11.640625 C 16.441406 -10.703125 16.6875 -9.71875 16.75 -8.6875 C 16.820312 -7.238281 16.597656 -5.882812 16.078125 -4.625 C 15.554688 -3.375 14.789062 -2.351562 13.78125 -1.5625 C 12.78125 -0.769531 11.578125 -0.335938 10.171875 -0.265625 Z M 9.5 -2.015625 C 10.351562 -2.054688 11.109375 -2.269531 11.765625 -2.65625 C 12.421875 -3.039062 12.976562 -3.546875 13.4375 -4.171875 C 13.894531 -4.804688 14.226562 -5.5 14.4375 -6.25 C 14.65625 -7 14.742188 -7.769531 14.703125 -8.5625 C 14.648438 -9.394531 14.457031 -10.179688 14.125 -10.921875 C 13.800781 -11.660156 13.351562 -12.304688 12.78125 -12.859375 C 12.21875 -13.410156 11.578125 -13.832031 10.859375 -14.125 C 10.148438 -14.425781 9.390625 -14.554688 8.578125 -14.515625 C 8.066406 -14.484375 7.535156 -14.351562 6.984375 -14.125 C 6.441406 -13.894531 5.925781 -13.582031 5.4375 -13.1875 C 4.945312 -12.789062 4.546875 -12.351562 4.234375 -11.875 C 3.929688 -11.394531 3.753906 -10.898438 3.703125 -10.390625 L 3.96875 -5.609375 C 4.320312 -4.910156 4.78125 -4.28125 5.34375 -3.71875 C 5.90625 -3.15625 6.550781 -2.71875 7.28125 -2.40625 C 8.007812 -2.101562 8.75 -1.972656 9.5 -2.015625 Z M 9.5 -2.015625 "/></g></g></g><g fill="#453630" fill-opacity="1"><g transform="translate(704.273834, 203.85587)"><g><path d="M 9.21875 -14.28125 C 7.863281 -14.164062 6.695312 -13.71875 5.71875 -12.9375 C 4.738281 -12.164062 4.078125 -11.144531 3.734375 -9.875 L 4.265625 -0.234375 L 2.234375 -0.125 L 1.375 -15.625 L 3.28125 -15.734375 L 3.484375 -12.03125 C 3.972656 -13.144531 4.640625 -14.0625 5.484375 -14.78125 C 6.328125 -15.5 7.238281 -15.925781 8.21875 -16.0625 C 8.414062 -16.09375 8.585938 -16.113281 8.734375 -16.125 C 8.890625 -16.132812 9.015625 -16.128906 9.109375 -16.109375 Z M 9.21875 -14.28125 "/></g></g></g><g fill="#453630" fill-opacity="1"><g transform="translate(713.650577, 203.339459)"><g><path d="M 8.859375 -0.1875 C 7.742188 -0.125 6.707031 -0.28125 5.75 -0.65625 C 4.789062 -1.03125 3.945312 -1.570312 3.21875 -2.28125 C 2.488281 -2.988281 1.90625 -3.8125 1.46875 -4.75 C 1.039062 -5.6875 0.796875 -6.691406 0.734375 -7.765625 C 0.671875 -8.878906 0.800781 -9.925781 1.125 -10.90625 C 1.457031 -11.894531 1.945312 -12.78125 2.59375 -13.5625 C 3.25 -14.34375 4.035156 -14.96875 4.953125 -15.4375 C 5.867188 -15.914062 6.882812 -16.1875 8 -16.25 C 9.101562 -16.3125 10.132812 -16.15625 11.09375 -15.78125 C 12.0625 -15.414062 12.910156 -14.878906 13.640625 -14.171875 C 14.367188 -13.460938 14.945312 -12.632812 15.375 -11.6875 C 15.8125 -10.75 16.0625 -9.722656 16.125 -8.609375 C 16.1875 -7.535156 16.050781 -6.507812 15.71875 -5.53125 C 15.394531 -4.550781 14.914062 -3.671875 14.28125 -2.890625 C 13.644531 -2.109375 12.863281 -1.476562 11.9375 -1 C 11.007812 -0.519531 9.984375 -0.25 8.859375 -0.1875 Z M 2.796875 -7.84375 C 2.859375 -6.695312 3.164062 -5.664062 3.71875 -4.75 C 4.28125 -3.84375 5 -3.140625 5.875 -2.640625 C 6.757812 -2.140625 7.722656 -1.914062 8.765625 -1.96875 C 9.796875 -2.03125 10.722656 -2.363281 11.546875 -2.96875 C 12.367188 -3.570312 13.007812 -4.363281 13.46875 -5.34375 C 13.9375 -6.332031 14.140625 -7.394531 14.078125 -8.53125 C 14.015625 -9.6875 13.695312 -10.726562 13.125 -11.65625 C 12.5625 -12.582031 11.835938 -13.300781 10.953125 -13.8125 C 10.066406 -14.320312 9.109375 -14.546875 8.078125 -14.484375 C 7.035156 -14.429688 6.109375 -14.09375 5.296875 -13.46875 C 4.492188 -12.84375 3.859375 -12.039062 3.390625 -11.0625 C 2.929688 -10.09375 2.734375 -9.019531 2.796875 -7.84375 Z M 2.796875 -7.84375 "/></g></g></g><g fill="#453630" fill-opacity="1"><g transform="translate(730.766856, 202.396805)"><g><path d="M 0.765625 -7.765625 C 0.679688 -9.234375 0.910156 -10.597656 1.453125 -11.859375 C 1.992188 -13.117188 2.773438 -14.140625 3.796875 -14.921875 C 4.828125 -15.710938 6.023438 -16.144531 7.390625 -16.21875 C 8.679688 -16.289062 9.859375 -16.015625 10.921875 -15.390625 C 11.992188 -14.773438 12.84375 -13.992188 13.46875 -13.046875 L 12.9375 -22.515625 L 14.953125 -22.625 L 16.015625 -3.328125 C 16.035156 -3.054688 16.109375 -2.859375 16.234375 -2.734375 C 16.359375 -2.609375 16.539062 -2.539062 16.78125 -2.53125 L 16.875 -0.921875 C 16.476562 -0.835938 16.171875 -0.800781 15.953125 -0.8125 C 15.546875 -0.8125 15.175781 -0.960938 14.84375 -1.265625 C 14.507812 -1.566406 14.332031 -1.90625 14.3125 -2.28125 L 14.21875 -3.8125 C 13.65625 -2.75 12.863281 -1.890625 11.84375 -1.234375 C 10.820312 -0.585938 9.742188 -0.234375 8.609375 -0.171875 C 7.535156 -0.117188 6.535156 -0.285156 5.609375 -0.671875 C 4.691406 -1.054688 3.878906 -1.609375 3.171875 -2.328125 C 2.460938 -3.046875 1.894531 -3.875 1.46875 -4.8125 C 1.050781 -5.75 0.816406 -6.734375 0.765625 -7.765625 Z M 13.84375 -6.109375 L 13.578125 -10.90625 C 13.285156 -11.59375 12.832031 -12.210938 12.21875 -12.765625 C 11.613281 -13.328125 10.941406 -13.765625 10.203125 -14.078125 C 9.460938 -14.390625 8.734375 -14.523438 8.015625 -14.484375 C 7.179688 -14.441406 6.429688 -14.222656 5.765625 -13.828125 C 5.109375 -13.441406 4.554688 -12.9375 4.109375 -12.3125 C 3.660156 -11.695312 3.328125 -11.003906 3.109375 -10.234375 C 2.898438 -9.460938 2.816406 -8.679688 2.859375 -7.890625 C 2.898438 -7.054688 3.082031 -6.269531 3.40625 -5.53125 C 3.738281 -4.800781 4.1875 -4.15625 4.75 -3.59375 C 5.3125 -3.03125 5.953125 -2.609375 6.671875 -2.328125 C 7.390625 -2.054688 8.15625 -1.941406 8.96875 -1.984375 C 9.488281 -2.015625 10.019531 -2.144531 10.5625 -2.375 C 11.101562 -2.601562 11.617188 -2.90625 12.109375 -3.28125 C 12.597656 -3.65625 13 -4.085938 13.3125 -4.578125 C 13.625 -5.078125 13.800781 -5.585938 13.84375 -6.109375 Z M 13.84375 -6.109375 "/></g></g></g><g fill="#453630" fill-opacity="1"><g transform="translate(748.686872, 201.409886)"><g><path d="M 1.734375 -6.5 L 1.234375 -15.609375 L 3.25 -15.71875 L 3.734375 -6.96875 C 3.835938 -5.207031 4.210938 -3.90625 4.859375 -3.0625 C 5.515625 -2.226562 6.4375 -1.84375 7.625 -1.90625 C 8.414062 -1.945312 9.175781 -2.160156 9.90625 -2.546875 C 10.632812 -2.941406 11.265625 -3.476562 11.796875 -4.15625 C 12.335938 -4.832031 12.738281 -5.601562 13 -6.46875 L 12.453125 -16.234375 L 14.484375 -16.34375 L 15.203125 -3.28125 C 15.222656 -3.007812 15.289062 -2.8125 15.40625 -2.6875 C 15.53125 -2.5625 15.707031 -2.5 15.9375 -2.5 L 16.03125 -0.890625 C 15.800781 -0.847656 15.617188 -0.816406 15.484375 -0.796875 C 15.347656 -0.785156 15.21875 -0.773438 15.09375 -0.765625 C 14.695312 -0.785156 14.347656 -0.925781 14.046875 -1.1875 C 13.742188 -1.445312 13.570312 -1.78125 13.53125 -2.1875 L 13.359375 -4.265625 C 12.742188 -3.035156 11.875 -2.050781 10.75 -1.3125 C 9.625 -0.570312 8.382812 -0.164062 7.03125 -0.09375 C 5.414062 0 4.160156 -0.492188 3.265625 -1.578125 C 2.367188 -2.660156 1.859375 -4.300781 1.734375 -6.5 Z M 1.734375 -6.5 "/></g></g></g><g fill="#453630" fill-opacity="1"><g transform="translate(765.773373, 200.468871)"><g><path d="M 2.234375 -0.125 L 1.375 -15.625 L 3.40625 -15.734375 L 4.265625 -0.234375 Z M 1.203125 -18.875 L 1.03125 -21.859375 L 3.0625 -21.96875 L 3.234375 -18.984375 Z M 1.203125 -18.875 "/></g></g></g><g fill="#453630" fill-opacity="1"><g transform="translate(771.667326, 200.14427)"><g><path d="M 9.625 -1.28125 C 9.476562 -1.207031 9.238281 -1.082031 8.90625 -0.90625 C 8.570312 -0.726562 8.171875 -0.566406 7.703125 -0.421875 C 7.234375 -0.285156 6.722656 -0.203125 6.171875 -0.171875 C 5.597656 -0.140625 5.050781 -0.21875 4.53125 -0.40625 C 4.007812 -0.59375 3.585938 -0.898438 3.265625 -1.328125 C 2.953125 -1.753906 2.773438 -2.296875 2.734375 -2.953125 L 2.125 -14.0625 L -0.015625 -13.953125 L -0.109375 -15.546875 L 2.03125 -15.65625 L 1.75 -20.90625 L 3.78125 -21.015625 L 4.0625 -15.765625 L 7.625 -15.96875 L 7.71875 -14.375 L 4.15625 -14.171875 L 4.734375 -3.640625 C 4.804688 -3.085938 5.03125 -2.679688 5.40625 -2.421875 C 5.78125 -2.160156 6.207031 -2.046875 6.6875 -2.078125 C 7.238281 -2.109375 7.738281 -2.226562 8.1875 -2.4375 C 8.632812 -2.65625 8.910156 -2.804688 9.015625 -2.890625 Z M 9.625 -1.28125 "/></g></g></g><g fill="#453630" fill-opacity="1"><g transform="translate(781.044068, 199.62786)"><g><path d="M 7.328125 -0.109375 C 6.054688 -0.0351562 4.863281 -0.175781 3.75 -0.53125 C 2.644531 -0.894531 1.671875 -1.476562 0.828125 -2.28125 L 1.578125 -3.765625 C 2.492188 -2.992188 3.398438 -2.445312 4.296875 -2.125 C 5.203125 -1.8125 6.15625 -1.6875 7.15625 -1.75 C 8.363281 -1.8125 9.332031 -2.101562 10.0625 -2.625 C 10.789062 -3.15625 11.128906 -3.878906 11.078125 -4.796875 C 11.046875 -5.410156 10.835938 -5.867188 10.453125 -6.171875 C 10.066406 -6.472656 9.523438 -6.707031 8.828125 -6.875 C 8.128906 -7.050781 7.296875 -7.234375 6.328125 -7.421875 C 5.242188 -7.660156 4.332031 -7.921875 3.59375 -8.203125 C 2.851562 -8.492188 2.285156 -8.878906 1.890625 -9.359375 C 1.492188 -9.847656 1.269531 -10.5 1.21875 -11.3125 C 1.164062 -12.332031 1.375 -13.1875 1.84375 -13.875 C 2.320312 -14.570312 2.988281 -15.113281 3.84375 -15.5 C 4.695312 -15.894531 5.671875 -16.125 6.765625 -16.1875 C 7.960938 -16.25 9.023438 -16.117188 9.953125 -15.796875 C 10.890625 -15.484375 11.671875 -15.003906 12.296875 -14.359375 L 11.390625 -12.921875 C 10.785156 -13.535156 10.09375 -13.972656 9.3125 -14.234375 C 8.53125 -14.492188 7.675781 -14.601562 6.75 -14.5625 C 6.113281 -14.519531 5.515625 -14.398438 4.953125 -14.203125 C 4.390625 -14.003906 3.929688 -13.695312 3.578125 -13.28125 C 3.234375 -12.875 3.082031 -12.335938 3.125 -11.671875 C 3.15625 -11.109375 3.316406 -10.679688 3.609375 -10.390625 C 3.910156 -10.097656 4.34375 -9.863281 4.90625 -9.6875 C 5.46875 -9.507812 6.160156 -9.320312 6.984375 -9.125 C 8.171875 -8.875 9.207031 -8.609375 10.09375 -8.328125 C 10.988281 -8.054688 11.691406 -7.671875 12.203125 -7.171875 C 12.710938 -6.679688 12.992188 -5.976562 13.046875 -5.0625 C 13.117188 -3.601562 12.628906 -2.4375 11.578125 -1.5625 C 10.535156 -0.6875 9.117188 -0.203125 7.328125 -0.109375 Z M 7.328125 -0.109375 "/></g></g></g><g fill="#453630" fill-opacity="1"><g transform="translate(386.078377, 252.927756)"><g><path d="M 14.0625 -18 C 13.75 -18.3125 13.382812 -18.59375 12.96875 -18.84375 C 12.5625 -19.09375 12.101562 -19.300781 11.59375 -19.46875 C 11.082031 -19.644531 10.539062 -19.773438 9.96875 -19.859375 C 9.394531 -19.953125 8.785156 -19.976562 8.140625 -19.9375 C 6.296875 -19.84375 4.960938 -19.414062 4.140625 -18.65625 C 3.328125 -17.90625 2.953125 -16.925781 3.015625 -15.71875 C 3.066406 -14.894531 3.304688 -14.253906 3.734375 -13.796875 C 4.171875 -13.335938 4.832031 -12.984375 5.71875 -12.734375 C 6.601562 -12.484375 7.734375 -12.238281 9.109375 -12 C 10.628906 -11.757812 11.945312 -11.453125 13.0625 -11.078125 C 14.1875 -10.703125 15.0625 -10.15625 15.6875 -9.4375 C 16.320312 -8.726562 16.671875 -7.738281 16.734375 -6.46875 C 16.796875 -5.5 16.65625 -4.644531 16.3125 -3.90625 C 15.976562 -3.175781 15.488281 -2.550781 14.84375 -2.03125 C 14.195312 -1.519531 13.414062 -1.125 12.5 -0.84375 C 11.582031 -0.570312 10.566406 -0.40625 9.453125 -0.34375 C 8.359375 -0.28125 7.300781 -0.332031 6.28125 -0.5 C 5.269531 -0.675781 4.304688 -0.960938 3.390625 -1.359375 C 2.472656 -1.753906 1.609375 -2.28125 0.796875 -2.9375 L 1.75 -4.703125 C 2.144531 -4.328125 2.613281 -3.976562 3.15625 -3.65625 C 3.707031 -3.34375 4.3125 -3.0625 4.96875 -2.8125 C 5.625 -2.5625 6.328125 -2.382812 7.078125 -2.28125 C 7.828125 -2.175781 8.601562 -2.144531 9.40625 -2.1875 C 11.09375 -2.28125 12.390625 -2.660156 13.296875 -3.328125 C 14.210938 -3.992188 14.632812 -4.929688 14.5625 -6.140625 C 14.519531 -7.003906 14.242188 -7.6875 13.734375 -8.1875 C 13.234375 -8.695312 12.492188 -9.09375 11.515625 -9.375 C 10.546875 -9.65625 9.359375 -9.921875 7.953125 -10.171875 C 6.460938 -10.421875 5.203125 -10.726562 4.171875 -11.09375 C 3.140625 -11.457031 2.347656 -11.96875 1.796875 -12.625 C 1.253906 -13.28125 0.953125 -14.175781 0.890625 -15.3125 C 0.816406 -16.613281 1.078125 -17.734375 1.671875 -18.671875 C 2.273438 -19.617188 3.125 -20.351562 4.21875 -20.875 C 5.320312 -21.40625 6.609375 -21.710938 8.078125 -21.796875 C 9.015625 -21.847656 9.890625 -21.800781 10.703125 -21.65625 C 11.523438 -21.507812 12.285156 -21.273438 12.984375 -20.953125 C 13.691406 -20.628906 14.359375 -20.21875 14.984375 -19.71875 Z M 14.0625 -18 "/></g></g></g><g fill="#453630" fill-opacity="1"><g transform="translate(403.551869, 251.965428)"><g><path d="M 1.734375 -6.5 L 1.234375 -15.609375 L 3.25 -15.71875 L 3.734375 -6.96875 C 3.835938 -5.207031 4.210938 -3.90625 4.859375 -3.0625 C 5.515625 -2.226562 6.4375 -1.84375 7.625 -1.90625 C 8.414062 -1.945312 9.175781 -2.160156 9.90625 -2.546875 C 10.632812 -2.941406 11.265625 -3.476562 11.796875 -4.15625 C 12.335938 -4.832031 12.738281 -5.601562 13 -6.46875 L 12.453125 -16.234375 L 14.484375 -16.34375 L 15.203125 -3.28125 C 15.222656 -3.007812 15.289062 -2.8125 15.40625 -2.6875 C 15.53125 -2.5625 15.707031 -2.5 15.9375 -2.5 L 16.03125 -0.890625 C 15.800781 -0.847656 15.617188 -0.816406 15.484375 -0.796875 C 15.347656 -0.785156 15.21875 -0.773438 15.09375 -0.765625 C 14.695312 -0.785156 14.347656 -0.925781 14.046875 -1.1875 C 13.742188 -1.445312 13.570312 -1.78125 13.53125 -2.1875 L 13.359375 -4.265625 C 12.742188 -3.035156 11.875 -2.050781 10.75 -1.3125 C 9.625 -0.570312 8.382812 -0.164062 7.03125 -0.09375 C 5.414062 0 4.160156 -0.492188 3.265625 -1.578125 C 2.367188 -2.660156 1.859375 -4.300781 1.734375 -6.5 Z M 1.734375 -6.5 "/></g></g></g><g fill="#453630" fill-opacity="1"><g transform="translate(420.638382, 251.024413)"><g><path d="M 10.171875 -0.265625 C 8.878906 -0.191406 7.703125 -0.460938 6.640625 -1.078125 C 5.578125 -1.703125 4.726562 -2.492188 4.09375 -3.453125 L 4.609375 6.09375 L 2.578125 6.203125 L 1.375 -15.625 L 3.1875 -15.71875 L 3.359375 -12.71875 C 3.929688 -13.738281 4.710938 -14.570312 5.703125 -15.21875 C 6.691406 -15.875 7.773438 -16.238281 8.953125 -16.3125 C 10.023438 -16.363281 11.019531 -16.191406 11.9375 -15.796875 C 12.851562 -15.410156 13.65625 -14.859375 14.34375 -14.140625 C 15.039062 -13.421875 15.597656 -12.585938 16.015625 -11.640625 C 16.441406 -10.703125 16.6875 -9.71875 16.75 -8.6875 C 16.820312 -7.238281 16.597656 -5.882812 16.078125 -4.625 C 15.554688 -3.375 14.789062 -2.351562 13.78125 -1.5625 C 12.78125 -0.769531 11.578125 -0.335938 10.171875 -0.265625 Z M 9.5 -2.015625 C 10.351562 -2.054688 11.109375 -2.269531 11.765625 -2.65625 C 12.421875 -3.039062 12.976562 -3.546875 13.4375 -4.171875 C 13.894531 -4.804688 14.226562 -5.5 14.4375 -6.25 C 14.65625 -7 14.742188 -7.769531 14.703125 -8.5625 C 14.648438 -9.394531 14.457031 -10.179688 14.125 -10.921875 C 13.800781 -11.660156 13.351562 -12.304688 12.78125 -12.859375 C 12.21875 -13.410156 11.578125 -13.832031 10.859375 -14.125 C 10.148438 -14.425781 9.390625 -14.554688 8.578125 -14.515625 C 8.066406 -14.484375 7.535156 -14.351562 6.984375 -14.125 C 6.441406 -13.894531 5.925781 -13.582031 5.4375 -13.1875 C 4.945312 -12.789062 4.546875 -12.351562 4.234375 -11.875 C 3.929688 -11.394531 3.753906 -10.898438 3.703125 -10.390625 L 3.96875 -5.609375 C 4.320312 -4.910156 4.78125 -4.28125 5.34375 -3.71875 C 5.90625 -3.15625 6.550781 -2.71875 7.28125 -2.40625 C 8.007812 -2.101562 8.75 -1.972656 9.5 -2.015625 Z M 9.5 -2.015625 "/></g></g></g><g fill="#453630" fill-opacity="1"><g transform="translate(438.409552, 250.045692)"><g><path d="M 8.9375 -0.1875 C 7.832031 -0.132812 6.789062 -0.296875 5.8125 -0.671875 C 4.84375 -1.046875 3.988281 -1.582031 3.25 -2.28125 C 2.519531 -2.988281 1.929688 -3.816406 1.484375 -4.765625 C 1.035156 -5.710938 0.785156 -6.742188 0.734375 -7.859375 C 0.648438 -9.304688 0.90625 -10.65625 1.5 -11.90625 C 2.101562 -13.15625 2.96875 -14.171875 4.09375 -14.953125 C 5.21875 -15.734375 6.523438 -16.164062 8.015625 -16.25 C 9.546875 -16.332031 10.90625 -16.039062 12.09375 -15.375 C 13.28125 -14.71875 14.234375 -13.800781 14.953125 -12.625 C 15.671875 -11.457031 16.066406 -10.160156 16.140625 -8.734375 C 16.148438 -8.578125 16.160156 -8.421875 16.171875 -8.265625 C 16.179688 -8.117188 16.175781 -8.003906 16.15625 -7.921875 L 2.890625 -7.203125 C 3.046875 -6.085938 3.410156 -5.113281 3.984375 -4.28125 C 4.566406 -3.457031 5.289062 -2.816406 6.15625 -2.359375 C 7.03125 -1.898438 7.960938 -1.695312 8.953125 -1.75 C 9.960938 -1.800781 10.90625 -2.109375 11.78125 -2.671875 C 12.65625 -3.242188 13.25 -3.957031 13.5625 -4.8125 L 15.328125 -4.4375 C 15.054688 -3.675781 14.613281 -2.976562 14 -2.34375 C 13.382812 -1.71875 12.640625 -1.21875 11.765625 -0.84375 C 10.898438 -0.46875 9.957031 -0.25 8.9375 -0.1875 Z M 2.75 -8.65625 L 14.21875 -9.296875 C 14.070312 -10.421875 13.710938 -11.394531 13.140625 -12.21875 C 12.566406 -13.050781 11.84375 -13.6875 10.96875 -14.125 C 10.101562 -14.5625 9.160156 -14.75 8.140625 -14.6875 C 7.128906 -14.632812 6.222656 -14.34375 5.421875 -13.8125 C 4.617188 -13.28125 3.976562 -12.566406 3.5 -11.671875 C 3.019531 -10.785156 2.769531 -9.78125 2.75 -8.65625 Z M 2.75 -8.65625 "/></g></g></g><g fill="#453630" fill-opacity="1"><g transform="translate(455.287698, 249.116152)"><g><path d="M 9.21875 -14.28125 C 7.863281 -14.164062 6.695312 -13.71875 5.71875 -12.9375 C 4.738281 -12.164062 4.078125 -11.144531 3.734375 -9.875 L 4.265625 -0.234375 L 2.234375 -0.125 L 1.375 -15.625 L 3.28125 -15.734375 L 3.484375 -12.03125 C 3.972656 -13.144531 4.640625 -14.0625 5.484375 -14.78125 C 6.328125 -15.5 7.238281 -15.925781 8.21875 -16.0625 C 8.414062 -16.09375 8.585938 -16.113281 8.734375 -16.125 C 8.890625 -16.132812 9.015625 -16.128906 9.109375 -16.109375 Z M 9.21875 -14.28125 "/></g></g></g><g fill="#453630" fill-opacity="1"><g transform="translate(465.140719, 248.573512)"><g><path d="M 11.1875 -0.453125 C 9.6875 -0.367188 8.3125 -0.597656 7.0625 -1.140625 C 5.820312 -1.691406 4.738281 -2.445312 3.8125 -3.40625 C 2.882812 -4.363281 2.144531 -5.46875 1.59375 -6.71875 C 1.050781 -7.976562 0.742188 -9.28125 0.671875 -10.625 C 0.585938 -12.039062 0.757812 -13.398438 1.1875 -14.703125 C 1.625 -16.015625 2.257812 -17.195312 3.09375 -18.25 C 3.9375 -19.300781 4.945312 -20.148438 6.125 -20.796875 C 7.3125 -21.453125 8.609375 -21.816406 10.015625 -21.890625 C 11.515625 -21.972656 12.878906 -21.738281 14.109375 -21.1875 C 15.347656 -20.644531 16.425781 -19.878906 17.34375 -18.890625 C 18.269531 -17.898438 19.007812 -16.785156 19.5625 -15.546875 C 20.113281 -14.304688 20.425781 -13.019531 20.5 -11.6875 C 20.570312 -10.28125 20.394531 -8.925781 19.96875 -7.625 C 19.539062 -6.320312 18.90625 -5.144531 18.0625 -4.09375 C 17.226562 -3.039062 16.222656 -2.191406 15.046875 -1.546875 C 13.878906 -0.898438 12.59375 -0.535156 11.1875 -0.453125 Z M 11.078125 -2.34375 C 12.285156 -2.414062 13.351562 -2.726562 14.28125 -3.28125 C 15.21875 -3.84375 16.003906 -4.5625 16.640625 -5.4375 C 17.285156 -6.3125 17.753906 -7.285156 18.046875 -8.359375 C 18.347656 -9.429688 18.46875 -10.515625 18.40625 -11.609375 C 18.34375 -12.765625 18.09375 -13.859375 17.65625 -14.890625 C 17.21875 -15.929688 16.625 -16.84375 15.875 -17.625 C 15.125 -18.414062 14.257812 -19.023438 13.28125 -19.453125 C 12.3125 -19.890625 11.253906 -20.078125 10.109375 -20.015625 C 8.910156 -19.953125 7.84375 -19.640625 6.90625 -19.078125 C 5.96875 -18.523438 5.179688 -17.804688 4.546875 -16.921875 C 3.910156 -16.046875 3.4375 -15.070312 3.125 -14 C 2.820312 -12.925781 2.703125 -11.84375 2.765625 -10.75 C 2.828125 -9.601562 3.070312 -8.507812 3.5 -7.46875 C 3.9375 -6.425781 4.523438 -5.507812 5.265625 -4.71875 C 6.003906 -3.9375 6.867188 -3.328125 7.859375 -2.890625 C 8.847656 -2.460938 9.921875 -2.28125 11.078125 -2.34375 Z M 12.71875 -7.203125 L 14.765625 -7.3125 L 20.59375 -1.140625 L 18.546875 -1.015625 Z M 12.71875 -7.203125 "/></g></g></g><g fill="#453630" fill-opacity="1"><g transform="translate(486.841192, 247.378389)"><g><path d="M 1.734375 -6.5 L 1.234375 -15.609375 L 3.25 -15.71875 L 3.734375 -6.96875 C 3.835938 -5.207031 4.210938 -3.90625 4.859375 -3.0625 C 5.515625 -2.226562 6.4375 -1.84375 7.625 -1.90625 C 8.414062 -1.945312 9.175781 -2.160156 9.90625 -2.546875 C 10.632812 -2.941406 11.265625 -3.476562 11.796875 -4.15625 C 12.335938 -4.832031 12.738281 -5.601562 13 -6.46875 L 12.453125 -16.234375 L 14.484375 -16.34375 L 15.203125 -3.28125 C 15.222656 -3.007812 15.289062 -2.8125 15.40625 -2.6875 C 15.53125 -2.5625 15.707031 -2.5 15.9375 -2.5 L 16.03125 -0.890625 C 15.800781 -0.847656 15.617188 -0.816406 15.484375 -0.796875 C 15.347656 -0.785156 15.21875 -0.773438 15.09375 -0.765625 C 14.695312 -0.785156 14.347656 -0.925781 14.046875 -1.1875 C 13.742188 -1.445312 13.570312 -1.78125 13.53125 -2.1875 L 13.359375 -4.265625 C 12.742188 -3.035156 11.875 -2.050781 10.75 -1.3125 C 9.625 -0.570312 8.382812 -0.164062 7.03125 -0.09375 C 5.414062 0 4.160156 -0.492188 3.265625 -1.578125 C 2.367188 -2.660156 1.859375 -4.300781 1.734375 -6.5 Z M 1.734375 -6.5 "/></g></g></g><g fill="#453630" fill-opacity="1"><g transform="translate(503.927705, 246.437374)"><g><path d="M 2.234375 -0.125 L 1.375 -15.625 L 3.40625 -15.734375 L 4.265625 -0.234375 Z M 1.203125 -18.875 L 1.03125 -21.859375 L 3.0625 -21.96875 L 3.234375 -18.984375 Z M 1.203125 -18.875 "/></g></g></g><g fill="#453630" fill-opacity="1"><g transform="translate(509.821658, 246.112773)"><g><path d="M 15.28125 -0.84375 L 13.25 -0.734375 L 12.765625 -9.390625 C 12.671875 -11.222656 12.332031 -12.546875 11.75 -13.359375 C 11.164062 -14.171875 10.296875 -14.546875 9.140625 -14.484375 C 8.347656 -14.441406 7.570312 -14.207031 6.8125 -13.78125 C 6.0625 -13.351562 5.414062 -12.785156 4.875 -12.078125 C 4.332031 -11.378906 3.957031 -10.597656 3.75 -9.734375 L 4.265625 -0.234375 L 2.234375 -0.125 L 1.375 -15.625 L 3.21875 -15.71875 L 3.421875 -12.21875 C 3.796875 -13 4.300781 -13.691406 4.9375 -14.296875 C 5.582031 -14.898438 6.320312 -15.378906 7.15625 -15.734375 C 7.988281 -16.097656 8.863281 -16.304688 9.78125 -16.359375 C 10.632812 -16.398438 11.367188 -16.28125 11.984375 -16 C 12.609375 -15.71875 13.113281 -15.296875 13.5 -14.734375 C 13.882812 -14.171875 14.179688 -13.476562 14.390625 -12.65625 C 14.597656 -11.84375 14.726562 -10.929688 14.78125 -9.921875 Z M 15.28125 -0.84375 "/></g></g></g><g fill="#453630" fill-opacity="1"><g transform="translate(526.580725, 245.189792)"><g><path d="M 8.234375 -0.15625 C 7.171875 -0.09375 6.195312 -0.253906 5.3125 -0.640625 C 4.425781 -1.035156 3.65625 -1.59375 3 -2.3125 C 2.34375 -3.039062 1.816406 -3.875 1.421875 -4.8125 C 1.035156 -5.75 0.816406 -6.742188 0.765625 -7.796875 C 0.703125 -8.890625 0.832031 -9.925781 1.15625 -10.90625 C 1.488281 -11.894531 1.96875 -12.78125 2.59375 -13.5625 C 3.21875 -14.34375 3.960938 -14.96875 4.828125 -15.4375 C 5.703125 -15.914062 6.660156 -16.179688 7.703125 -16.234375 C 8.910156 -16.304688 10.039062 -16.054688 11.09375 -15.484375 C 12.15625 -14.921875 13.003906 -14.175781 13.640625 -13.25 L 13.46875 -16.28125 L 15.265625 -16.390625 L 16.46875 5.4375 L 14.453125 5.546875 L 13.9375 -4 C 12.53125 -1.570312 10.628906 -0.289062 8.234375 -0.15625 Z M 8.765625 -1.96875 C 9.578125 -2.007812 10.304688 -2.210938 10.953125 -2.578125 C 11.597656 -2.941406 12.15625 -3.414062 12.625 -4 C 13.101562 -4.59375 13.503906 -5.234375 13.828125 -5.921875 L 13.5625 -10.71875 C 13.476562 -11.25 13.253906 -11.75 12.890625 -12.21875 C 12.523438 -12.6875 12.082031 -13.101562 11.5625 -13.46875 C 11.039062 -13.832031 10.488281 -14.101562 9.90625 -14.28125 C 9.320312 -14.457031 8.75 -14.53125 8.1875 -14.5 C 7.332031 -14.445312 6.570312 -14.222656 5.90625 -13.828125 C 5.238281 -13.429688 4.664062 -12.921875 4.1875 -12.296875 C 3.707031 -11.671875 3.347656 -10.972656 3.109375 -10.203125 C 2.878906 -9.429688 2.785156 -8.65625 2.828125 -7.875 C 2.890625 -6.757812 3.1875 -5.742188 3.71875 -4.828125 C 4.257812 -3.910156 4.960938 -3.1875 5.828125 -2.65625 C 6.691406 -2.132812 7.671875 -1.90625 8.765625 -1.96875 Z M 8.765625 -1.96875 "/></g></g></g><g fill="#453630" fill-opacity="1"><g transform="translate(544.351896, 244.21107)"><g><path d="M 1.734375 -6.5 L 1.234375 -15.609375 L 3.25 -15.71875 L 3.734375 -6.96875 C 3.835938 -5.207031 4.210938 -3.90625 4.859375 -3.0625 C 5.515625 -2.226562 6.4375 -1.84375 7.625 -1.90625 C 8.414062 -1.945312 9.175781 -2.160156 9.90625 -2.546875 C 10.632812 -2.941406 11.265625 -3.476562 11.796875 -4.15625 C 12.335938 -4.832031 12.738281 -5.601562 13 -6.46875 L 12.453125 -16.234375 L 14.484375 -16.34375 L 15.203125 -3.28125 C 15.222656 -3.007812 15.289062 -2.8125 15.40625 -2.6875 C 15.53125 -2.5625 15.707031 -2.5 15.9375 -2.5 L 16.03125 -0.890625 C 15.800781 -0.847656 15.617188 -0.816406 15.484375 -0.796875 C 15.347656 -0.785156 15.21875 -0.773438 15.09375 -0.765625 C 14.695312 -0.785156 14.347656 -0.925781 14.046875 -1.1875 C 13.742188 -1.445312 13.570312 -1.78125 13.53125 -2.1875 L 13.359375 -4.265625 C 12.742188 -3.035156 11.875 -2.050781 10.75 -1.3125 C 9.625 -0.570312 8.382812 -0.164062 7.03125 -0.09375 C 5.414062 0 4.160156 -0.492188 3.265625 -1.578125 C 2.367188 -2.660156 1.859375 -4.300781 1.734375 -6.5 Z M 1.734375 -6.5 "/></g></g></g><g fill="#453630" fill-opacity="1"><g transform="translate(561.438409, 243.270055)"><g><path d="M 2.234375 -0.125 L 1.375 -15.625 L 3.40625 -15.734375 L 4.265625 -0.234375 Z M 1.203125 -18.875 L 1.03125 -21.859375 L 3.0625 -21.96875 L 3.234375 -18.984375 Z M 1.203125 -18.875 "/></g></g></g><g fill="#453630" fill-opacity="1"><g transform="translate(567.332362, 242.945454)"><g><path d="M 15.28125 -0.84375 L 13.25 -0.734375 L 12.765625 -9.390625 C 12.671875 -11.222656 12.332031 -12.546875 11.75 -13.359375 C 11.164062 -14.171875 10.296875 -14.546875 9.140625 -14.484375 C 8.347656 -14.441406 7.570312 -14.207031 6.8125 -13.78125 C 6.0625 -13.351562 5.414062 -12.785156 4.875 -12.078125 C 4.332031 -11.378906 3.957031 -10.597656 3.75 -9.734375 L 4.265625 -0.234375 L 2.234375 -0.125 L 1.375 -15.625 L 3.21875 -15.71875 L 3.421875 -12.21875 C 3.796875 -13 4.300781 -13.691406 4.9375 -14.296875 C 5.582031 -14.898438 6.320312 -15.378906 7.15625 -15.734375 C 7.988281 -16.097656 8.863281 -16.304688 9.78125 -16.359375 C 10.632812 -16.398438 11.367188 -16.28125 11.984375 -16 C 12.609375 -15.71875 13.113281 -15.296875 13.5 -14.734375 C 13.882812 -14.171875 14.179688 -13.476562 14.390625 -12.65625 C 14.597656 -11.84375 14.726562 -10.929688 14.78125 -9.921875 Z M 15.28125 -0.84375 "/></g></g></g><g fill="#453630" fill-opacity="1"><g transform="translate(584.09144, 242.022472)"><g/></g></g><g fill="#453630" fill-opacity="1"><g transform="translate(591.086774, 241.637214)"><g><path d="M 0.734375 -4.515625 C 0.679688 -5.484375 0.914062 -6.332031 1.4375 -7.0625 C 1.957031 -7.800781 2.695312 -8.394531 3.65625 -8.84375 C 4.613281 -9.289062 5.738281 -9.550781 7.03125 -9.625 C 7.78125 -9.664062 8.566406 -9.644531 9.390625 -9.5625 C 10.210938 -9.488281 10.945312 -9.347656 11.59375 -9.140625 L 11.515625 -10.453125 C 11.453125 -11.765625 11.007812 -12.785156 10.1875 -13.515625 C 9.363281 -14.242188 8.265625 -14.570312 6.890625 -14.5 C 6.054688 -14.457031 5.25 -14.257812 4.46875 -13.90625 C 3.695312 -13.550781 2.890625 -13.054688 2.046875 -12.421875 L 1.1875 -13.8125 C 2.15625 -14.550781 3.113281 -15.117188 4.0625 -15.515625 C 5.007812 -15.910156 5.992188 -16.140625 7.015625 -16.203125 C 8.921875 -16.304688 10.457031 -15.84375 11.625 -14.8125 C 12.800781 -13.789062 13.441406 -12.316406 13.546875 -10.390625 L 13.9375 -3.21875 C 13.957031 -2.945312 14.03125 -2.75 14.15625 -2.625 C 14.28125 -2.5 14.472656 -2.429688 14.734375 -2.421875 L 14.828125 -0.8125 C 14.609375 -0.78125 14.421875 -0.75 14.265625 -0.71875 C 14.109375 -0.6875 13.988281 -0.679688 13.90625 -0.703125 C 13.40625 -0.691406 13.019531 -0.828125 12.75 -1.109375 C 12.476562 -1.398438 12.320312 -1.71875 12.28125 -2.0625 L 12.1875 -3.171875 C 11.539062 -2.242188 10.671875 -1.503906 9.578125 -0.953125 C 8.492188 -0.410156 7.378906 -0.109375 6.234375 -0.046875 C 5.242188 0.00390625 4.335938 -0.15625 3.515625 -0.53125 C 2.691406 -0.914062 2.035156 -1.457031 1.546875 -2.15625 C 1.054688 -2.851562 0.785156 -3.640625 0.734375 -4.515625 Z M 11.1875 -3.90625 C 11.394531 -4.195312 11.550781 -4.472656 11.65625 -4.734375 C 11.757812 -4.992188 11.804688 -5.222656 11.796875 -5.421875 L 11.671875 -7.671875 C 10.984375 -7.898438 10.269531 -8.0625 9.53125 -8.15625 C 8.800781 -8.257812 8.066406 -8.289062 7.328125 -8.25 C 5.878906 -8.175781 4.726562 -7.820312 3.875 -7.1875 C 3.019531 -6.5625 2.617188 -5.757812 2.671875 -4.78125 C 2.703125 -4.195312 2.878906 -3.660156 3.203125 -3.171875 C 3.523438 -2.679688 3.984375 -2.289062 4.578125 -2 C 5.171875 -1.707031 5.851562 -1.582031 6.625 -1.625 C 7.601562 -1.675781 8.503906 -1.914062 9.328125 -2.34375 C 10.148438 -2.769531 10.769531 -3.289062 11.1875 -3.90625 Z M 11.1875 -3.90625 "/></g></g></g><g fill="#453630" fill-opacity="1"><g transform="translate(606.238402, 240.80276)"><g><path d="M 6.84375 -0.375 L -0.296875 -15.53125 L 1.828125 -15.640625 L 7.859375 -2.46875 L 12.453125 -16.234375 L 14.453125 -16.34375 L 9.015625 -0.5 Z M 6.84375 -0.375 "/></g></g></g><g fill="#453630" fill-opacity="1"><g transform="translate(621.122119, 239.983061)"><g><path d="M 0.734375 -4.515625 C 0.679688 -5.484375 0.914062 -6.332031 1.4375 -7.0625 C 1.957031 -7.800781 2.695312 -8.394531 3.65625 -8.84375 C 4.613281 -9.289062 5.738281 -9.550781 7.03125 -9.625 C 7.78125 -9.664062 8.566406 -9.644531 9.390625 -9.5625 C 10.210938 -9.488281 10.945312 -9.347656 11.59375 -9.140625 L 11.515625 -10.453125 C 11.453125 -11.765625 11.007812 -12.785156 10.1875 -13.515625 C 9.363281 -14.242188 8.265625 -14.570312 6.890625 -14.5 C 6.054688 -14.457031 5.25 -14.257812 4.46875 -13.90625 C 3.695312 -13.550781 2.890625 -13.054688 2.046875 -12.421875 L 1.1875 -13.8125 C 2.15625 -14.550781 3.113281 -15.117188 4.0625 -15.515625 C 5.007812 -15.910156 5.992188 -16.140625 7.015625 -16.203125 C 8.921875 -16.304688 10.457031 -15.84375 11.625 -14.8125 C 12.800781 -13.789062 13.441406 -12.316406 13.546875 -10.390625 L 13.9375 -3.21875 C 13.957031 -2.945312 14.03125 -2.75 14.15625 -2.625 C 14.28125 -2.5 14.472656 -2.429688 14.734375 -2.421875 L 14.828125 -0.8125 C 14.609375 -0.78125 14.421875 -0.75 14.265625 -0.71875 C 14.109375 -0.6875 13.988281 -0.679688 13.90625 -0.703125 C 13.40625 -0.691406 13.019531 -0.828125 12.75 -1.109375 C 12.476562 -1.398438 12.320312 -1.71875 12.28125 -2.0625 L 12.1875 -3.171875 C 11.539062 -2.242188 10.671875 -1.503906 9.578125 -0.953125 C 8.492188 -0.410156 7.378906 -0.109375 6.234375 -0.046875 C 5.242188 0.00390625 4.335938 -0.15625 3.515625 -0.53125 C 2.691406 -0.914062 2.035156 -1.457031 1.546875 -2.15625 C 1.054688 -2.851562 0.785156 -3.640625 0.734375 -4.515625 Z M 11.1875 -3.90625 C 11.394531 -4.195312 11.550781 -4.472656 11.65625 -4.734375 C 11.757812 -4.992188 11.804688 -5.222656 11.796875 -5.421875 L 11.671875 -7.671875 C 10.984375 -7.898438 10.269531 -8.0625 9.53125 -8.15625 C 8.800781 -8.257812 8.066406 -8.289062 7.328125 -8.25 C 5.878906 -8.175781 4.726562 -7.820312 3.875 -7.1875 C 3.019531 -6.5625 2.617188 -5.757812 2.671875 -4.78125 C 2.703125 -4.195312 2.878906 -3.660156 3.203125 -3.171875 C 3.523438 -2.679688 3.984375 -2.289062 4.578125 -2 C 5.171875 -1.707031 5.851562 -1.582031 6.625 -1.625 C 7.601562 -1.675781 8.503906 -1.914062 9.328125 -2.34375 C 10.148438 -2.769531 10.769531 -3.289062 11.1875 -3.90625 Z M 11.1875 -3.90625 "/></g></g></g><g fill="#453630" fill-opacity="1"><g transform="translate(636.750038, 239.122376)"><g><path d="M 15.28125 -0.84375 L 13.25 -0.734375 L 12.765625 -9.390625 C 12.671875 -11.222656 12.332031 -12.546875 11.75 -13.359375 C 11.164062 -14.171875 10.296875 -14.546875 9.140625 -14.484375 C 8.347656 -14.441406 7.570312 -14.207031 6.8125 -13.78125 C 6.0625 -13.351562 5.414062 -12.785156 4.875 -12.078125 C 4.332031 -11.378906 3.957031 -10.597656 3.75 -9.734375 L 4.265625 -0.234375 L 2.234375 -0.125 L 1.375 -15.625 L 3.21875 -15.71875 L 3.421875 -12.21875 C 3.796875 -13 4.300781 -13.691406 4.9375 -14.296875 C 5.582031 -14.898438 6.320312 -15.378906 7.15625 -15.734375 C 7.988281 -16.097656 8.863281 -16.304688 9.78125 -16.359375 C 10.632812 -16.398438 11.367188 -16.28125 11.984375 -16 C 12.609375 -15.71875 13.113281 -15.296875 13.5 -14.734375 C 13.882812 -14.171875 14.179688 -13.476562 14.390625 -12.65625 C 14.597656 -11.84375 14.726562 -10.929688 14.78125 -9.921875 Z M 15.28125 -0.84375 "/></g></g></g><g fill="#453630" fill-opacity="1"><g transform="translate(653.360271, 238.207592)"><g><path d="M 9.625 -1.28125 C 9.476562 -1.207031 9.238281 -1.082031 8.90625 -0.90625 C 8.570312 -0.726562 8.171875 -0.566406 7.703125 -0.421875 C 7.234375 -0.285156 6.722656 -0.203125 6.171875 -0.171875 C 5.597656 -0.140625 5.050781 -0.21875 4.53125 -0.40625 C 4.007812 -0.59375 3.585938 -0.898438 3.265625 -1.328125 C 2.953125 -1.753906 2.773438 -2.296875 2.734375 -2.953125 L 2.125 -14.0625 L -0.015625 -13.953125 L -0.109375 -15.546875 L 2.03125 -15.65625 L 1.75 -20.90625 L 3.78125 -21.015625 L 4.0625 -15.765625 L 7.625 -15.96875 L 7.71875 -14.375 L 4.15625 -14.171875 L 4.734375 -3.640625 C 4.804688 -3.085938 5.03125 -2.679688 5.40625 -2.421875 C 5.78125 -2.160156 6.207031 -2.046875 6.6875 -2.078125 C 7.238281 -2.109375 7.738281 -2.226562 8.1875 -2.4375 C 8.632812 -2.65625 8.910156 -2.804688 9.015625 -2.890625 Z M 9.625 -1.28125 "/></g></g></g><g fill="#453630" fill-opacity="1"><g transform="translate(662.736991, 237.691182)"><g/></g></g><g fill="#453630" fill-opacity="1"><g transform="translate(669.732348, 237.305923)"><g><path d="M 1.125 -21.859375 L 3.15625 -21.96875 L 4.171875 -3.75 C 4.210938 -2.976562 4.375 -2.476562 4.65625 -2.25 C 4.9375 -2.03125 5.273438 -1.929688 5.671875 -1.953125 C 6.023438 -1.972656 6.378906 -2.03125 6.734375 -2.125 C 7.085938 -2.226562 7.394531 -2.328125 7.65625 -2.421875 L 8.109375 -0.8125 C 7.742188 -0.632812 7.289062 -0.476562 6.75 -0.34375 C 6.207031 -0.21875 5.738281 -0.144531 5.34375 -0.125 C 4.4375 -0.0703125 3.691406 -0.296875 3.109375 -0.796875 C 2.535156 -1.304688 2.222656 -2.023438 2.171875 -2.953125 Z M 1.125 -21.859375 "/></g></g></g><g fill="#453630" fill-opacity="1"><g transform="translate(676.787215, 236.917386)"><g><path d="M 1.203125 -15.609375 L 0.890625 -21.421875 L 2.640625 -21.515625 L 2.953125 -15.703125 Z M 1.203125 -15.609375 "/></g></g></g><g fill="#453630" fill-opacity="1"><g transform="translate(681.073718, 236.681314)"><g><path d="M 8.859375 -0.1875 C 7.742188 -0.125 6.707031 -0.28125 5.75 -0.65625 C 4.789062 -1.03125 3.945312 -1.570312 3.21875 -2.28125 C 2.488281 -2.988281 1.90625 -3.8125 1.46875 -4.75 C 1.039062 -5.6875 0.796875 -6.691406 0.734375 -7.765625 C 0.671875 -8.878906 0.800781 -9.925781 1.125 -10.90625 C 1.457031 -11.894531 1.945312 -12.78125 2.59375 -13.5625 C 3.25 -14.34375 4.035156 -14.96875 4.953125 -15.4375 C 5.867188 -15.914062 6.882812 -16.1875 8 -16.25 C 9.101562 -16.3125 10.132812 -16.15625 11.09375 -15.78125 C 12.0625 -15.414062 12.910156 -14.878906 13.640625 -14.171875 C 14.367188 -13.460938 14.945312 -12.632812 15.375 -11.6875 C 15.8125 -10.75 16.0625 -9.722656 16.125 -8.609375 C 16.1875 -7.535156 16.050781 -6.507812 15.71875 -5.53125 C 15.394531 -4.550781 14.914062 -3.671875 14.28125 -2.890625 C 13.644531 -2.109375 12.863281 -1.476562 11.9375 -1 C 11.007812 -0.519531 9.984375 -0.25 8.859375 -0.1875 Z M 2.796875 -7.84375 C 2.859375 -6.695312 3.164062 -5.664062 3.71875 -4.75 C 4.28125 -3.84375 5 -3.140625 5.875 -2.640625 C 6.757812 -2.140625 7.722656 -1.914062 8.765625 -1.96875 C 9.796875 -2.03125 10.722656 -2.363281 11.546875 -2.96875 C 12.367188 -3.570312 13.007812 -4.363281 13.46875 -5.34375 C 13.9375 -6.332031 14.140625 -7.394531 14.078125 -8.53125 C 14.015625 -9.6875 13.695312 -10.726562 13.125 -11.65625 C 12.5625 -12.582031 11.835938 -13.300781 10.953125 -13.8125 C 10.066406 -14.320312 9.109375 -14.546875 8.078125 -14.484375 C 7.035156 -14.429688 6.109375 -14.09375 5.296875 -13.46875 C 4.492188 -12.84375 3.859375 -12.039062 3.390625 -11.0625 C 2.929688 -10.09375 2.734375 -9.019531 2.796875 -7.84375 Z M 2.796875 -7.84375 "/></g></g></g><g fill="#453630" fill-opacity="1"><g transform="translate(698.19002, 235.738658)"><g><path d="M 1.734375 -6.5 L 1.234375 -15.609375 L 3.25 -15.71875 L 3.734375 -6.96875 C 3.835938 -5.207031 4.210938 -3.90625 4.859375 -3.0625 C 5.515625 -2.226562 6.4375 -1.84375 7.625 -1.90625 C 8.414062 -1.945312 9.175781 -2.160156 9.90625 -2.546875 C 10.632812 -2.941406 11.265625 -3.476562 11.796875 -4.15625 C 12.335938 -4.832031 12.738281 -5.601562 13 -6.46875 L 12.453125 -16.234375 L 14.484375 -16.34375 L 15.203125 -3.28125 C 15.222656 -3.007812 15.289062 -2.8125 15.40625 -2.6875 C 15.53125 -2.5625 15.707031 -2.5 15.9375 -2.5 L 16.03125 -0.890625 C 15.800781 -0.847656 15.617188 -0.816406 15.484375 -0.796875 C 15.347656 -0.785156 15.21875 -0.773438 15.09375 -0.765625 C 14.695312 -0.785156 14.347656 -0.925781 14.046875 -1.1875 C 13.742188 -1.445312 13.570312 -1.78125 13.53125 -2.1875 L 13.359375 -4.265625 C 12.742188 -3.035156 11.875 -2.050781 10.75 -1.3125 C 9.625 -0.570312 8.382812 -0.164062 7.03125 -0.09375 C 5.414062 0 4.160156 -0.492188 3.265625 -1.578125 C 2.367188 -2.660156 1.859375 -4.300781 1.734375 -6.5 Z M 1.734375 -6.5 "/></g></g></g><g fill="#453630" fill-opacity="1"><g transform="translate(715.276521, 234.797644)"><g><path d="M 6.84375 -0.375 L -0.296875 -15.53125 L 1.828125 -15.640625 L 7.859375 -2.46875 L 12.453125 -16.234375 L 14.453125 -16.34375 L 9.015625 -0.5 Z M 6.84375 -0.375 "/></g></g></g><g fill="#453630" fill-opacity="1"><g transform="translate(730.011393, 233.986142)"><g><path d="M 8.9375 -0.1875 C 7.832031 -0.132812 6.789062 -0.296875 5.8125 -0.671875 C 4.84375 -1.046875 3.988281 -1.582031 3.25 -2.28125 C 2.519531 -2.988281 1.929688 -3.816406 1.484375 -4.765625 C 1.035156 -5.710938 0.785156 -6.742188 0.734375 -7.859375 C 0.648438 -9.304688 0.90625 -10.65625 1.5 -11.90625 C 2.101562 -13.15625 2.96875 -14.171875 4.09375 -14.953125 C 5.21875 -15.734375 6.523438 -16.164062 8.015625 -16.25 C 9.546875 -16.332031 10.90625 -16.039062 12.09375 -15.375 C 13.28125 -14.71875 14.234375 -13.800781 14.953125 -12.625 C 15.671875 -11.457031 16.066406 -10.160156 16.140625 -8.734375 C 16.148438 -8.578125 16.160156 -8.421875 16.171875 -8.265625 C 16.179688 -8.117188 16.175781 -8.003906 16.15625 -7.921875 L 2.890625 -7.203125 C 3.046875 -6.085938 3.410156 -5.113281 3.984375 -4.28125 C 4.566406 -3.457031 5.289062 -2.816406 6.15625 -2.359375 C 7.03125 -1.898438 7.960938 -1.695312 8.953125 -1.75 C 9.960938 -1.800781 10.90625 -2.109375 11.78125 -2.671875 C 12.65625 -3.242188 13.25 -3.957031 13.5625 -4.8125 L 15.328125 -4.4375 C 15.054688 -3.675781 14.613281 -2.976562 14 -2.34375 C 13.382812 -1.71875 12.640625 -1.21875 11.765625 -0.84375 C 10.898438 -0.46875 9.957031 -0.25 8.9375 -0.1875 Z M 2.75 -8.65625 L 14.21875 -9.296875 C 14.070312 -10.421875 13.710938 -11.394531 13.140625 -12.21875 C 12.566406 -13.050781 11.84375 -13.6875 10.96875 -14.125 C 10.101562 -14.5625 9.160156 -14.75 8.140625 -14.6875 C 7.128906 -14.632812 6.222656 -14.34375 5.421875 -13.8125 C 4.617188 -13.28125 3.976562 -12.566406 3.5 -11.671875 C 3.019531 -10.785156 2.769531 -9.78125 2.75 -8.65625 Z M 2.75 -8.65625 "/></g></g></g><g fill="#453630" fill-opacity="1"><g transform="translate(746.889561, 233.056601)"><g><path d="M 9.21875 -14.28125 C 7.863281 -14.164062 6.695312 -13.71875 5.71875 -12.9375 C 4.738281 -12.164062 4.078125 -11.144531 3.734375 -9.875 L 4.265625 -0.234375 L 2.234375 -0.125 L 1.375 -15.625 L 3.28125 -15.734375 L 3.484375 -12.03125 C 3.972656 -13.144531 4.640625 -14.0625 5.484375 -14.78125 C 6.328125 -15.5 7.238281 -15.925781 8.21875 -16.0625 C 8.414062 -16.09375 8.585938 -16.113281 8.734375 -16.125 C 8.890625 -16.132812 9.015625 -16.128906 9.109375 -16.109375 Z M 9.21875 -14.28125 "/></g></g></g><g fill="#453630" fill-opacity="1"><g transform="translate(756.742571, 232.513961)"><g><path d="M 9.625 -1.28125 C 9.476562 -1.207031 9.238281 -1.082031 8.90625 -0.90625 C 8.570312 -0.726562 8.171875 -0.566406 7.703125 -0.421875 C 7.234375 -0.285156 6.722656 -0.203125 6.171875 -0.171875 C 5.597656 -0.140625 5.050781 -0.21875 4.53125 -0.40625 C 4.007812 -0.59375 3.585938 -0.898438 3.265625 -1.328125 C 2.953125 -1.753906 2.773438 -2.296875 2.734375 -2.953125 L 2.125 -14.0625 L -0.015625 -13.953125 L -0.109375 -15.546875 L 2.03125 -15.65625 L 1.75 -20.90625 L 3.78125 -21.015625 L 4.0625 -15.765625 L 7.625 -15.96875 L 7.71875 -14.375 L 4.15625 -14.171875 L 4.734375 -3.640625 C 4.804688 -3.085938 5.03125 -2.679688 5.40625 -2.421875 C 5.78125 -2.160156 6.207031 -2.046875 6.6875 -2.078125 C 7.238281 -2.109375 7.738281 -2.226562 8.1875 -2.4375 C 8.632812 -2.65625 8.910156 -2.804688 9.015625 -2.890625 Z M 9.625 -1.28125 "/></g></g></g><g fill="#453630" fill-opacity="1"><g transform="translate(766.119314, 231.99755)"><g><path d="M 1.734375 -6.5 L 1.234375 -15.609375 L 3.25 -15.71875 L 3.734375 -6.96875 C 3.835938 -5.207031 4.210938 -3.90625 4.859375 -3.0625 C 5.515625 -2.226562 6.4375 -1.84375 7.625 -1.90625 C 8.414062 -1.945312 9.175781 -2.160156 9.90625 -2.546875 C 10.632812 -2.941406 11.265625 -3.476562 11.796875 -4.15625 C 12.335938 -4.832031 12.738281 -5.601562 13 -6.46875 L 12.453125 -16.234375 L 14.484375 -16.34375 L 15.203125 -3.28125 C 15.222656 -3.007812 15.289062 -2.8125 15.40625 -2.6875 C 15.53125 -2.5625 15.707031 -2.5 15.9375 -2.5 L 16.03125 -0.890625 C 15.800781 -0.847656 15.617188 -0.816406 15.484375 -0.796875 C 15.347656 -0.785156 15.21875 -0.773438 15.09375 -0.765625 C 14.695312 -0.785156 14.347656 -0.925781 14.046875 -1.1875 C 13.742188 -1.445312 13.570312 -1.78125 13.53125 -2.1875 L 13.359375 -4.265625 C 12.742188 -3.035156 11.875 -2.050781 10.75 -1.3125 C 9.625 -0.570312 8.382812 -0.164062 7.03125 -0.09375 C 5.414062 0 4.160156 -0.492188 3.265625 -1.578125 C 2.367188 -2.660156 1.859375 -4.300781 1.734375 -6.5 Z M 1.734375 -6.5 "/></g></g></g><g fill="#453630" fill-opacity="1"><g transform="translate(783.205814, 231.056536)"><g><path d="M 9.21875 -14.28125 C 7.863281 -14.164062 6.695312 -13.71875 5.71875 -12.9375 C 4.738281 -12.164062 4.078125 -11.144531 3.734375 -9.875 L 4.265625 -0.234375 L 2.234375 -0.125 L 1.375 -15.625 L 3.28125 -15.734375 L 3.484375 -12.03125 C 3.972656 -13.144531 4.640625 -14.0625 5.484375 -14.78125 C 6.328125 -15.5 7.238281 -15.925781 8.21875 -16.0625 C 8.414062 -16.09375 8.585938 -16.113281 8.734375 -16.125 C 8.890625 -16.132812 9.015625 -16.128906 9.109375 -16.109375 Z M 9.21875 -14.28125 "/></g></g></g><g fill="#453630" fill-opacity="1"><g transform="translate(792.58258, 230.540124)"><g><path d="M 8.9375 -0.1875 C 7.832031 -0.132812 6.789062 -0.296875 5.8125 -0.671875 C 4.84375 -1.046875 3.988281 -1.582031 3.25 -2.28125 C 2.519531 -2.988281 1.929688 -3.816406 1.484375 -4.765625 C 1.035156 -5.710938 0.785156 -6.742188 0.734375 -7.859375 C 0.648438 -9.304688 0.90625 -10.65625 1.5 -11.90625 C 2.101562 -13.15625 2.96875 -14.171875 4.09375 -14.953125 C 5.21875 -15.734375 6.523438 -16.164062 8.015625 -16.25 C 9.546875 -16.332031 10.90625 -16.039062 12.09375 -15.375 C 13.28125 -14.71875 14.234375 -13.800781 14.953125 -12.625 C 15.671875 -11.457031 16.066406 -10.160156 16.140625 -8.734375 C 16.148438 -8.578125 16.160156 -8.421875 16.171875 -8.265625 C 16.179688 -8.117188 16.175781 -8.003906 16.15625 -7.921875 L 2.890625 -7.203125 C 3.046875 -6.085938 3.410156 -5.113281 3.984375 -4.28125 C 4.566406 -3.457031 5.289062 -2.816406 6.15625 -2.359375 C 7.03125 -1.898438 7.960938 -1.695312 8.953125 -1.75 C 9.960938 -1.800781 10.90625 -2.109375 11.78125 -2.671875 C 12.65625 -3.242188 13.25 -3.957031 13.5625 -4.8125 L 15.328125 -4.4375 C 15.054688 -3.675781 14.613281 -2.976562 14 -2.34375 C 13.382812 -1.71875 12.640625 -1.21875 11.765625 -0.84375 C 10.898438 -0.46875 9.957031 -0.25 8.9375 -0.1875 Z M 2.75 -8.65625 L 14.21875 -9.296875 C 14.070312 -10.421875 13.710938 -11.394531 13.140625 -12.21875 C 12.566406 -13.050781 11.84375 -13.6875 10.96875 -14.125 C 10.101562 -14.5625 9.160156 -14.75 8.140625 -14.6875 C 7.128906 -14.632812 6.222656 -14.34375 5.421875 -13.8125 C 4.617188 -13.28125 3.976562 -12.566406 3.5 -11.671875 C 3.019531 -10.785156 2.769531 -9.78125 2.75 -8.65625 Z M 2.75 -8.65625 "/></g></g></g></svg>